<?xml version="1.0" encoding="UTF-8" standalone="no"?>
<!-- Created with Inkscape (http://www.inkscape.org/) -->
<svg id="svg9464" xmlns:rdf="http://www.w3.org/1999/02/22-rdf-syntax-ns#" xmlns="http://www.w3.org/2000/svg" height="210.93" width="46.639" version="1.1" xmlns:cc="http://creativecommons.org/ns#" xmlns:dc="http://purl.org/dc/elements/1.1/">
 <metadata id="metadata9469">
  <rdf:RDF>
   <cc:Work rdf:about="">
    <dc:format>image/svg+xml</dc:format>
    <dc:type rdf:resource="http://purl.org/dc/dcmitype/StillImage"/>
    <dc:title/>
   </cc:Work>
  </rdf:RDF>
 </metadata>
 <g id="layer1" transform="translate(-351.68059,-426.89964)">
  <g id="g9523" fill-rule="nonzero">
   <path id="path104" fill="#468ed3" d="m359.77,508.55s-1.3836-1.7255,2.8215-12.189c4.2052-10.475-1.7091-13.437-1.0851-14.537,0.51537-0.91238,2.1161-1.1753,2.6316-1.2252,0.75963,0.33695,1.5735,0.66252,2.4688,0.93789l-0.10875,0.28731s2.3332,11.25,7.9492,10.625c5.643-0.62535,5.3175-4.0633,5.019-10.151l-0.16275-0.38688c1.7635-0.77565,3.3099-1.9002,4.6935-3.2374l0.16288,0.0241c1.5464,0.31282,0.78675,8.2875,0.78675,8.2875s-1.9534,4.5752,3.4726,16.9c0.2985,0.73767,0.65113,1.5122,1.031,2.3126,6.7282,14.062,2.9842,25.475,2.6588,28.125-0.217,2.0622-1.4108,3.85-3.9068,10.824-0.70537,2.0125-1.5464,4.4499-2.496,7.463-3.554,11.3-6.3214,10.887-7.1081,10.462-0.16275-0.0741-0.217-0.14923-0.217-0.14923,1.0851-7.0381-1.248-14.225-7.1895-14.851-5.9416-0.62508-9.2244,8.7506-9.2244,8.7506-9.0615-10.313-7.3522-22.963-4.0695-33.751,0.0813-0.26181,0.16275-0.5247,0.217-0.77484,3.0115-10.187,1.655-13.749,1.655-13.749"/>
   <path id="path106" fill="#4ebd37" d="m352.58,457.61s4.4765-6.6119,8.8716-10.988l0.0812-0.0754,0.27125,0.27564-0.0813,0.0879c-0.841,0.9623-8.2748,9.7872-6.7826,23.2l-0.35262,0.11237c-1.2751-3.6127-1.7906-7.8371-2.1161-12.612h0.10875"/>
   <path id="path108" fill="#4ebd37" d="m352.44,456.82c-0.78688-13.587,1.7091-9.8377,5.1276-20.313,3.4455-10.462,11.584-8.8998,11.584-8.8998,19.208-1.5622,21.704,17.813,21.704,17.813-12.968-7.6621-18.747-2.5-23.413-2.6623-1.5736-0.0507-3.7169,1.5749-5.9144,3.7866l-0.0813,0.0754c-4.3951,4.3758-8.8716,10.988-8.8716,10.988h-0.10875c0-0.2629-0.0275-0.5247-0.0275-0.78759"/>
   <path id="path110" fill="#ece177" d="m383.99,478.68c-1.3836,1.3372-2.93,2.4618-4.6935,3.2374-0.16275,0.0744-0.3255,0.14949-0.5155,0.21189-2.1704,0.86274-4.6664,1.1628-7.4608,0.63701-1.7364-0.3242-3.3099-0.73657-4.7208-1.2241-0.89525-0.27537-1.7091-0.60094-2.4688-0.93789-5.1005-2.3251-7.9221-5.8498-9.5499-10.375l0.35262-0.11237c-1.4921-13.412,5.9416-22.237,6.7826-23.2l0.0813-0.0879-0.27125-0.27564c2.1975-2.2117,4.3408-3.8373,5.9144-3.7866,4.6664,0.16225,10.445-4.9998,23.413,2.6623l0.16275,0.62535c3.4456,6.8745,1.872,16.087,1.872,16.087s-2.5502,10.412-8.8988,16.538"/>
   <path id="path112" fill="#ece177" d="m384.94,486.99s0.75962-7.9747-0.78675-8.2875l1.5464,0.31281s7.5151,3.9127,3.12,24.687l-0.407,0.18747c-5.426-12.325-3.4726-16.9-3.4726-16.9"/>
   <path id="path114" fill="#ece177" d="m361.5,481.82c-0.624,1.1001,5.2904,4.0622,1.0851,14.537-4.2051,10.463-2.8215,12.189-2.8215,12.189s1.3565,3.5619-1.655,13.749l-0.5425-0.16197c-9.36-17.025-2.3332-29.376-0.75975-35.151,1.5736-5.7874,4.6936-5.1621,4.6936-5.1621"/>
   <path id="path116" fill="#ece177" d="m374.44,492.45c-5.616,0.62426-7.9492-10.625-7.9492-10.625l0.10875-0.28731c1.4109,0.48754,2.9844,0.89991,4.7208,1.2241,2.7944,0.52579,5.2904,0.22573,7.4608-0.63701,0.19-0.0624,0.35275-0.13755,0.5155-0.21189l0.16275,0.38688c0.2985,6.0872,0.624,9.5252-5.019,10.151"/>
   <path id="path118" fill="#ece177" d="m378.38,563.55,0.217-0.47478c0.78675,0.42513,3.5541,0.83833,7.1081-10.462,0.94963-3.0131,1.7906-5.4505,2.496-7.463l0.3255,0.11233s4.6936,12.976-1.7091,36.251c0,0,0.75962,4.2253,0.29837,5.4749-0.46112,1.2494,1.5736,15.462,1.248,22.025-0.29837,6.562,0.46125,19.849,1.5736,21.413,1.0851,1.5621,2.1704,3.7495,4.9919,3.7495,2.8216,0,4.5308,2.6505-0.16275,2.9621-4.6935,0.31264-5.7788-0.77468-5.7788-0.77468s-2.7944-1.4127-4.0424-0.93686c-0.94963,0.34973-1.7364-0.0127-1.7635-2.1503-0.0275-0.66236,0.0275-1.5006,0.18987-2.5382,0.624-4.3748-0.9495-9.2243-0.9495-9.2243s-3.744-19.375-2.0348-25.776c0,0-1.7092-23.288-2.9572-24.375l-0.18987-0.0497c0.9495-3.8503,1.1395-7.763,1.1395-7.763"/>
   <path id="path120" fill="#ece177" d="m375.07,629.8c2.5502-0.37518,6.4299,1.8376,6.4299,3.5375,0,1.1244-1.7364,2.0252-6.7284,1.7751l-6.0771-0.16322s-3.4456,0.62527-3.7711-5.3126c-0.2985-5.9369-0.9225-8.7495-0.9225-8.7495s-1.5735-17.813,0-25c0,0,0.2985-3.4379-0.3255-8.1255-0.624-4.6873-2.1704-24.687-1.7092-30.937,0,0,3.2828-9.3757,9.2244-8.7506,5.9415,0.62535,8.2746,7.8127,7.1895,14.851,0,0,0.0538,0.0752,0.217,0.14922l-0.217,0.47478s-0.19,3.9127-1.1395,7.763c-0.56975,2.3875-1.465,4.7624-2.7944,6.1371,0,0-1.5465,3.5999-1.248,5.4757,0.3255,1.8747,1.4108,7.0243-2.496,10.775,0,0-1.7092,26.725-0.2985,32.662,0,0,0.46125,4.0632,4.6665,3.4379"/>
   <path id="path122" fill="#231f20" d="m353.12,457.96s0.27125-0.39963,0.75962-1.0874c1.4379-2.0497,4.7749-6.5748,8.0034-9.7997l-0.434-0.45036,0.40687,0.47586,0.0813-0.0754,0.0275-0.0127,0.0275-0.0125c1.031-1.0746,2.0891-2,3.0386-2.6379,0.94962-0.64978,1.7635-0.97506,2.3332-0.97506h0.0538l0.24412,0.0127c1.4379-0.0127,2.8759-0.41211,4.4765-0.80007,1.6279-0.38688,3.4184-0.76209,5.5346-0.76209,3.2828,0,7.3794,0.88716,12.887,4.1246l1.0851,0.65085-0.16275-1.2632c0-0.0499-0.56975-4.5997-3.3912-9.2001-1.3836-2.2996-3.3641-4.6122-6.1044-6.3501-2.7401-1.7496-6.267-2.8994-10.689-2.8994-0.70537,0-1.4379,0.0369-2.1976,0.0996l0.0538,0.6126,0.10875-0.6126c-0.0275,0-0.48838-0.0869-1.248-0.0869-1.248,0-3.3099,0.2374-5.4261,1.5619-2.1161,1.312-4.2322,3.6998-5.5888,7.8499-1.4922,4.5253-2.7674,6.2877-3.744,8.1252-0.48837,0.91239-0.89537,1.8503-1.1666,3.0872-0.27125,1.2504-0.407,2.7882-0.407,4.9374,0,1.238,0.0275,2.675,0.13575,4.3875l0.624-0.0371-0.624,0.0371c0,0.26289,0.0275,0.53854,0.0537,0.81283l0.59687-0.0624-0.624,0.0371c0.3255,4.8007,0.841,9.0876,2.1704,12.788,1.655,4.6493,4.6392,8.3626,9.8754,10.738,0.78688,0.34971,1.6279,0.67419,2.5231,0.96231l0.18987-0.59985-0.217,0.59985c1.465,0.50029,3.0658,0.91239,4.8292,1.2496,0.97663,0.17471,1.9262,0.26261,2.8215,0.26261,1.8178,0,3.4726-0.33695,4.992-0.93789l-0.24425-0.5871,0.21713,0.59985c0.217-0.0869,0.37975-0.16196,0.54262-0.23738l-0.24425-0.57436,0.24425,0.57436c1.8448-0.81283,3.4726-1.9754,4.9105-3.3625,6.5112-6.3121,9.0344-16.787,9.0615-16.838v-0.0244-0.0125c0-0.0255,0.35275-2.1503,0.35275-5.1252,0-3.2874-0.43412-7.6125-2.279-11.35l-1.1124,0.56269c1.7092,3.4496,2.1434,7.6125,2.1434,10.788,0,1.4371-0.0812,2.6748-0.16275,3.5503-0.055,0.42485-0.0813,0.77456-0.13575,1.012-0.0275,0.23739-0.0537,0.34971-0.0537,0.34971l0.624,0.10063-0.59687-0.1503c0,0.0128-0.0275,0.16305-0.13563,0.45037-0.54262,2.0253-3.2014,10.6-8.6002,15.787-1.3294,1.3004-2.8216,2.375-4.5036,3.1254-0.19,0.0741-0.32563,0.13782-0.46125,0.18747h-0.0275v0.0113c-1.3836,0.53854-2.8758,0.85108-4.5308,0.85108-0.81388,0-1.6821-0.0751-2.5774-0.25014-1.7092-0.31254-3.2556-0.726-4.6664-1.2008-0.84113-0.27429-1.655-0.5871-2.3875-0.91239l-0.27125,0.56269,0.27125-0.56269c-4.9378-2.2754-7.6236-5.6124-9.2242-10.013-1.248-3.5248-1.7635-7.6865-2.0619-12.449v-0.0255c-0.0275-0.23738-0.0538-0.48752-0.0538-0.75015v-0.0113c-0.10875-1.6883-0.13575-3.101-0.13575-4.3134,0-2.0993,0.13575-3.5375,0.37988-4.6618,0.37975-1.6756,0.97662-2.6506,1.8178-4.1629,0.841-1.4995,1.9262-3.4624,3.0656-6.9372,1.2751-3.9127,3.2014-6.0123,5.0462-7.1749,1.8449-1.1625,3.6898-1.3755,4.775-1.3755,0.3255,0,0.59688,0.0128,0.75963,0.0383l0.217,0.0241h0.0537l0.0813,0.0255,0.0538-0.0128c0.75975-0.0624,1.438-0.0879,2.1162-0.0879,4.2322,0,7.4608,1.0874,10.011,2.7003,3.7982,2.4249,6.0501,6.0875,7.3524,9.163,0.624,1.525,1.0309,2.9122,1.2751,3.9127,0.10875,0.49893,0.18987,0.89964,0.24412,1.1742,0.0275,0.13783,0.0538,0.2374,0.0538,0.31255l0.0275,0.10063,0.59688-0.0879,0.32562-0.53745c-5.616-3.3254-10.011-4.3004-13.511-4.3004-2.279,0-4.1781,0.40045-5.833,0.80008-1.6279,0.38796-2.9844,0.76317-4.1781,0.76317l-0.217-0.0127v0.62508l0.0275-0.62508h-0.10875c-1.0039,0.0127-1.9805,0.48753-3.0386,1.187-1.031,0.71325-2.1432,1.688-3.2285,2.7882l0.43412,0.43652-0.407-0.46202-0.0813,0.0754-0.0275,0.0128v0.0112c-4.4494,4.4382-8.9259,11.063-8.953,11.076l1.0581,0.69942"/>
   <path id="path124" fill="#231f20" d="m361.34,446.42-0.0813,0.0871,0.46125,0.40045-0.46125-0.4132c-0.81387,0.93789-7.1352,8.4378-7.1352,20.112,0,1.1509,0.0537,2.3378,0.18988,3.5755l1.248-0.13755c-0.13563-1.188-0.18988-2.3381-0.18988-3.4379-0.0275-11.2,6.1044-18.462,6.8098-19.274l0.10875-0.10063-0.94962-0.81201"/>
   <path id="path126" fill="#231f20" d="m366.17,467.55c0.0275,0.0252,1.2209,1.4127,3.1742,2.7998,1.9534,1.3872,4.6392,2.8126,7.7321,2.8126,2.9029,0.0127,6.0771-1.3248,8.9801-5.0126l-0.97675-0.77484c-2.7401,3.4496-5.4802,4.5381-8.0034,4.5381-2.6588,0.0113-5.1819-1.2635-6.9996-2.5752-0.9225-0.65087-1.655-1.3131-2.1704-1.8006-0.27138-0.25014-0.46125-0.44928-0.59688-0.5871l-0.13575-0.16224-0.0537-0.0507-0.9495,0.81283"/>
   <path id="path128" fill="#231f20" d="m365.87,481.96c0.0275,0.0244,0.56975,2.7119,1.8178,5.4494,0.65113,1.3755,1.4379,2.7627,2.4689,3.8373,1.0039,1.0757,2.3061,1.8503,3.8525,1.8503,0.16275,0,0.35275,0,0.5155-0.0253,1.1395-0.12506,2.0619-0.36245,2.8486-0.72491,1.1395-0.5502,1.9262-1.4371,2.3332-2.5128,0.40688-1.0746,0.5155-2.324,0.5155-3.7622,0-1.137-0.055-2.4122-0.13575-3.8004l-1.248,0.0638c0.055,1.3999,0.13575,2.6493,0.13575,3.7366,0,1.8375-0.21712,3.1878-0.84112,4.0633-0.29838,0.43652-0.70538,0.78732-1.3022,1.0744-0.624,0.28731-1.4108,0.51302-2.4416,0.62535-0.13575,0.0113-0.27137,0.0113-0.37987,0.0113-1.1124,0-2.0619-0.53718-2.9572-1.4615-1.3294-1.3883-2.3331-3.5628-2.9842-5.4006-0.32563-0.91239-0.56975-1.7369-0.7325-2.3378-0.0813-0.30007-0.13575-0.53745-0.16288-0.69943-0.0537-0.16224-0.0537-0.25014-0.0537-0.25014l-1.248,0.2629"/>
   <path id="path130" fill="#231f20" d="m384.02,479.31,1.5736,0.3128,0.10875-0.6126-0.27125,0.56269,0.16275-0.34971-0.16275,0.34971,0,0,0.16275-0.34971-0.16275,0.34971,0.16275,0.0996c0.75963,0.54993,3.9881,3.3129,3.9881,12.388,0,3.0627-0.37988,6.862-1.3565,11.512l1.2209,0.2629c1.0038-4.7256,1.3836-8.6003,1.3836-11.775,0-5.4377-1.1395-8.8119-2.3332-10.85-1.1936-2.038-2.4145-2.7003-2.4959-2.7502l-0.0813-0.0369-1.6549-0.33804-0.24425,1.2249"/>
   <path id="path132" fill="#231f20" d="m383.45,479.19,0.0275,0.0127,0.13563,0.0499,0.10875,0,0-0.27456-0.0275,0.27456,0.0275,0,0-0.27456-0.0275,0.27456,0.16275,0.038,0.2985-1.2133c-0.16288-0.0499-0.27138-0.0626-0.43413-0.0744v0.62426l0.27125-0.56159-0.0275-0.0127-0.51537,1.137"/>
   <path id="path134" fill="#231f20" d="m364.21,479.96-0.16275,0.0253,0.0813,0.6126-0.0275-0.6126c-0.32563,0.0255-0.86825,0.11262-1.4922,0.31281-0.59688,0.22464-1.248,0.53717-1.6549,1.2124-0.0813,0.16196-0.13562,0.33695-0.13562,0.5,0,0.27456,0.0813,0.47479,0.18987,0.66252,0.16275,0.32529,0.37975,0.6495,0.65113,1.0375,0.75962,1.1498,1.8178,2.8625,1.8178,5.7874,0,1.7252-0.37988,3.9-1.4651,6.6374-2.5502,6.3246-3.0928,9.4997-3.0928,11.15,0,1.0757,0.24413,1.5136,0.37975,1.6628l0.46125-0.39936-0.56975,0.22464,0.18988-0.0754-0.217,0.0754h0.0275l0.18987-0.0754-0.217,0.0754c0.0275,0.0127,0.29838,0.76182,0.29838,2.5,0,2.0622-0.37975,5.5373-1.9534,10.85v0.0244c-0.0537,0.22572-0.13562,0.47587-0.217,0.7629l0.59688,0.16224-0.59688-0.17499c-1.465,4.8878-2.6588,10.188-2.6588,15.526,0,6.4741,1.7635,13.037,6.864,18.812l0.67825,0.81282,0.37975-1.0133,0.0275-0.0868c0.16288-0.45036,1.0039-2.588,2.4146-4.5622,0.67825-0.98781,1.5192-1.9257,2.4689-2.6135,0.9495-0.67391,2.0076-1.099,3.1471-1.099,0.16275,0,0.3255,0.0116,0.48825,0.0244,2.3061,0.25014,3.9611,1.5122,5.1276,3.4751,1.1666,1.9626,1.7635,4.6005,1.7635,7.4247,0,1.063-0.0813,2.1503-0.24412,3.2374l-0.0538,0.31282,0.24412,0.22464c0.0275,0.038,0.16275,0.15057,0.37988,0.26289l0.27125-0.56295-0.29838,0.56295c0.24413,0.11233,0.56963,0.22464,0.9495,0.22464,0.43413,0,0.94963-0.13674,1.465-0.46203,0.78688-0.51303,1.6279-1.4382,2.5502-3.0872,0.9225-1.6628,1.9534-4.0506,3.0386-7.5129,0.9495-3.0001,1.7906-5.425,2.4689-7.4375,1.2751-3.4748,2.1704-5.6507,2.8215-7.2256,0.65113-1.5746,1.0039-2.5996,1.1666-3.7366,0.0538-0.62535,0.37987-2.0008,0.70537-3.8756,0.32563-1.8747,0.59688-4.2752,0.59688-7.075,0-4.8368-0.86813-10.9-4.0424-17.513-0.37987-0.79899-0.7325-1.5622-1.031-2.2871v-0.0127c-3.12-7.1122-3.7711-11.575-3.7711-14.012,0-0.8755,0.0812-1.4995,0.16287-1.8875,0.0537-0.18773,0.0812-0.32529,0.10875-0.41237l0.0275-0.0751v-0.0127l-0.21712-0.0867,0.21712,0.0867-0.21712-0.0867,0.21712,0.0867,0.0275-0.0867,0.0275-0.10063c0-0.0127,0.18988-1.9998,0.18988-4.0622,0-1.0375-0.0537-2.1004-0.217-2.9632-0.0813-0.43653-0.18988-0.8245-0.35275-1.1625-0.0813-0.16225-0.18988-0.32422-0.35263-0.46204-0.13562-0.14949-0.35275-0.26289-0.56975-0.31254l-0.13562-0.0244-0.21713,1.2366,0.13563,0.0255,0.10875-0.62536-0.13575,0.61261,0.0275-0.12508-0.0537,0.11238,0.0275,0.0127,0.0275-0.12508-0.0538,0.11238,0.0275-0.0496-0.0275,0.0496,0.0275-0.0496-0.0275,0.0496,0.0275,0.0626c0.13575,0.17472,0.2985,0.71325,0.37987,1.3755,0.0813,0.64977,0.10875,1.4498,0.10875,2.2499,0,0.98781-0.0537,1.9743-0.10875,2.7247-0.0537,0.73766-0.0813,1.2124-0.0813,1.2252l0.624,0.0496-0.59687-0.2374c-0.0275,0.0754-0.37988,0.96231-0.37988,2.8753,0,2.662,0.67825,7.2869,3.8525,14.525l0.59688-0.2629-0.59688,0.25015c0.32563,0.75041,0.67825,1.5377,1.0852,2.3378,3.0658,6.4244,3.9068,12.287,3.9068,16.975,0,2.713-0.27125,5.0498-0.56975,6.8745-0.3255,1.8378-0.65112,3.1382-0.7325,3.9382-0.10875,0.92514-0.43412,1.825-1.0852,3.3997-0.624,1.5749-1.5735,3.7877-2.8215,7.2872-0.70537,2.0125-1.5464,4.4626-2.496,7.4755-1.4108,4.5497-2.713,7.1504-3.744,8.5748-0.5425,0.70051-0.97662,1.1126-1.3294,1.3375-0.35263,0.22573-0.59688,0.27538-0.78675,0.27538-0.16275,0-0.27125-0.0369-0.35263-0.0879l-0.0813-0.0499h-0.0275l-0.217,0.25014,0.24413-0.23738-0.0275-0.0128-0.217,0.25014,0.24412-0.2374-0.434,0.43789,0.624,0.0996c0.16275-1.15,0.24413-2.2871,0.24413-3.4252,0-2.9876-0.624-5.8501-1.9262-8.0628-1.3022-2.2117-3.3641-3.7993-6.0771-4.075-0.21712-0.0242-0.43412-0.0369-0.624-0.0369-1.5736,0-2.9301,0.62508-4.0968,1.4995-1.7091,1.3259-2.9842,3.2377-3.8525,4.8251-0.841,1.5877-1.2751,2.8498-1.3022,2.8753l0.59688,0.20022,0.46125-0.4121c-4.8562-5.5384-6.5384-11.725-6.5384-17.988,0-5.1504,1.1395-10.338,2.6045-15.163l0.0275-0.0127c0.0537-0.24905,0.13563-0.51167,0.217-0.78732l-0.624-0.16224,0.59688,0.17499c1.6008-5.3994,2.0076-8.9869,2.0076-11.2,0-1.9873-0.3255-2.8625-0.35262-2.9377l-0.0537-0.0999-0.0538-0.0751-0.24425,0.18748,0.27137-0.13755-0.0275-0.0499-0.24425,0.18748,0.27138-0.13755c0-0.0127-0.10875-0.25015-0.10875-0.92542,0-1.3617,0.46112-4.4499,2.9842-10.687,1.1666-2.8508,1.5736-5.1876,1.5736-7.1005,0-2.4746-0.70537-4.2497-1.4109-5.4876-0.35263-0.61233-0.67825-1.0999-0.9495-1.4623-0.10875-0.17498-0.18988-0.32528-0.24413-0.43787l-0.055-0.0996v-0.0128l-0.10875,0.0128h0.10875v-0.0128l-0.10875,0.0128h0.10875-0.24412l0.217,0.12507,0.0275-0.12507h-0.24413l0.217,0.12507c0.10875-0.23738,0.5155-0.50027,0.97675-0.6495,0.46125-0.16332,0.97663-0.23847,1.1938-0.26288h0.0275l0.16275-0.0255-0.18987-1.2377"/>
   <path id="path136" fill="#231f20" d="m361.61,481.21c-0.0275,0-0.16275-0.0255-0.37988-0.0255-0.5155,0-1.465,0.13782-2.4146,0.95064-0.97663,0.80008-1.9534,2.2244-2.6045,4.6876-0.46113,1.7125-1.465,4.1374-2.3602,7.1374-0.89538,3.012-1.6821,6.6119-1.6821,10.75,0,5.1496,1.2209,11.112,4.8835,17.737l1.0851-0.6126c-3.554-6.4508-4.7206-12.176-4.7206-17.125,0-3.9751,0.75963-7.4502,1.6279-10.388,0.86812-2.9377,1.8719-5.3254,2.3602-7.1746,0.624-2.2882,1.4651-3.4507,2.1976-4.0506,0.70538-0.59985,1.3294-0.66225,1.6278-0.66225h0.13563l0.0275,0.0127,0.0275-0.20048-0.0538,0.18773,0.0275,0.0127,0.0275-0.20048-0.0537,0.18773,0.24425-1.2252"/>
   <path id="path138" fill="#231f20" d="m360.69,509.97-0.24413,0.0624,0.24413-0.0624,0,0-0.24413,0.0624,0.24413-0.0624s-0.0813-0.41237-0.0813-1.2624c0-2.0378,0.48837-6.5875,3.7982-14.288l-1.1395-0.48754c-3.3641,7.8127-3.9068,12.538-3.9068,14.775,0,1.0006,0.10875,1.4998,0.10875,1.5494l1.2209-0.28704"/>
   <path id="path140" fill="#231f20" d="m387.93,545.47,0.0275,0.0499c0.16275,0.47478,1.6006,4.9374,1.6006,12.925,0,5.8257-0.75963,13.512-3.337,22.9l-0.0537,0.13782,0.0275,0.13755s0.0275,0.15058,0.0813,0.41238c0.10875,0.76291,0.37987,2.4873,0.37987,3.7122,0,0.47586-0.0537,0.87549-0.10875,1.0261l0.56975,0.21189-0.56975-0.21189c-0.0537,0.16197-0.0813,0.29979-0.10875,0.46203,0,0.16224-0.0275,0.34971-0.0275,0.54993,0.0275,1.6121,0.35275,4.9618,0.70538,8.7378,0.32562,3.7497,0.67825,7.8995,0.67825,10.962,0,0.53745-0.0275,1.0377-0.0538,1.4998-0.0537,1.013-0.0537,2.1628-0.0537,3.4124,0,3.4877,0.16275,7.6749,0.46125,11.175,0.16275,1.7497,0.3255,3.3129,0.5155,4.5496,0.10875,0.62527,0.217,1.1626,0.3255,1.6002,0.13562,0.43769,0.24425,0.7747,0.43412,1.063,0.5155,0.74926,1.0851,1.7243,1.9262,2.5498,0.841,0.82452,2.0076,1.4752,3.5811,1.4625,0.67825,0,1.2751,0.1876,1.655,0.41227,0.18987,0.11232,0.3255,0.23739,0.407,0.34971l0.0813,0.18757-0.0275,0.10068c-0.0537,0.0742-0.24425,0.23739-0.624,0.3741-0.37988,0.12507-0.94963,0.25012-1.6821,0.29993-0.56975,0.0381-1.1124,0.0509-1.5735,0.0509-1.6008,0-2.6045-0.20031-3.12-0.38788-0.2985-0.0869-0.46125-0.17486-0.54262-0.22467l-0.0813-0.0498v-0.0127l-0.18988,0.23738,0.217-0.21299-0.0275-0.0244-0.18987,0.23738,0.217-0.21299-0.0813-0.0742-0.0812-0.0381c-0.0275-0.0127-0.54263-0.27448-1.2751-0.55001-0.70537-0.26178-1.6279-0.55004-2.4418-0.55004-0.2985,0-0.56975,0.0255-0.86812,0.13777l0.24412,0.57546-0.217-0.58816c-0.16287,0.0625-0.27137,0.088-0.37987,0.088l-0.13563-0.0382c-0.0537-0.0244-0.13562-0.0996-0.24425-0.36246-0.0813-0.25011-0.16275-0.67508-0.16275-1.2495v-0.16319c0-0.58713,0.0537-1.3491,0.18988-2.2743,0.10875-0.7747,0.16287-1.5377,0.16287-2.3008,0-3.7739-1.1124-7.1747-1.1124-7.2118l-0.624,0.18758,0.624-0.11235s-0.16275-0.80013-0.37988-2.1248c-0.70537-3.9752-2.089-12.738-2.089-18.826,0-1.8492,0.13563-3.4496,0.43413-4.5495l0.0275-0.0998-0.0275-0.10065c0-0.0128-0.407-5.8246-1.0039-11.799-0.29837-2.9876-0.624-6.0004-0.9495-8.3499-0.19-1.188-0.35275-2.1875-0.5155-2.9632-0.10875-0.38688-0.18987-0.71217-0.27125-0.97506-0.10875-0.27456-0.16287-0.47478-0.43412-0.71217l-0.81388,0.9368,0.16275-0.18638-0.18987,0.14949,0.0275,0.0369,0.16275-0.18639-0.18988,0.14949s0.0813,0.1503,0.13563,0.37494c0.27125,0.88716,0.59687,2.8625,0.89525,5.263,0.46125,3.5999,0.89537,8.1868,1.2209,11.875,0.16275,1.8506,0.2985,3.4624,0.37988,4.6249,0.0813,1.1498,0.16275,1.8503,0.16275,1.8503l0.59687-0.0507-0.59687-0.16224c-0.32563,1.2876-0.46125,2.9632-0.46125,4.875,0,8.3382,2.496,21.163,2.496,21.188v0.0371l0.0275,0.0371,0.0275,0.13777c0.217,0.66236,1.0039,3.6,1.0039,6.6872,0,0.71323-0.0275,1.4254-0.13575,2.1132-0.13562,0.97498-0.18987,1.7878-0.18987,2.4619v0.18758c0,0.88808,0.13562,1.5504,0.43412,2.0634,0.13563,0.24903,0.35263,0.46205,0.59688,0.61254,0.24412,0.13671,0.5155,0.19925,0.75962,0.19925,0.29838,0,0.54263-0.0625,0.81388-0.16216,0.0812-0.0255,0.21712-0.0498,0.407-0.0498,0.5155-0.0127,1.3565,0.22466,2.0076,0.47478,0.3255,0.12504,0.624,0.25011,0.81388,0.33701l0.24425,0.11341,0.0813,0.0371,0.27125-0.56273-0.43413,0.45039c0.16288,0.14943,1.1666,1.0121,4.6122,1.0121,0.51538,0,1.058-0.0244,1.6549-0.0625,1.1124-0.0752,1.8991-0.26176,2.496-0.57441,0.29837-0.16318,0.54262-0.35076,0.7325-0.59982,0.16275-0.23845,0.27137-0.53837,0.27137-0.8383,0-0.34971-0.13575-0.67505-0.32562-0.93683-0.624-0.7874-1.7364-1.2505-3.0658-1.2632-1.2209,0-2.0076-0.44936-2.713-1.1117-0.67825-0.66341-1.2209-1.5504-1.7635-2.3633-0.0275-0.0371-0.16275-0.29992-0.24413-0.67508-0.35275-1.3374-0.67825-4.1119-0.92237-7.2626-0.21713-3.1497-0.35275-6.7243-0.35275-9.7372,0-1.2252,0-2.375,0.0538-3.35,0.0275-0.48753,0.0537-1.012,0.0537-1.5622,0-3.1506-0.35263-7.3124-0.70538-11.076-0.3255-3.7622-0.67825-7.1491-0.67825-8.6244,0-0.17472,0.0275-0.33804,0.0275-0.43761l0.0275-0.12507v-0.0244l-0.0813-0.0255,0.0813,0.0372v-0.0116l-0.0813-0.0255,0.0813,0.0372c0.13563-0.43652,0.18988-0.91239,0.18988-1.4626,0-1.8248-0.46113-4.3248-0.48825-4.3492l-0.59688,0.11232,0.59688,0.17499c2.6045-9.4999,3.3912-17.313,3.3912-23.238,0-8.6868-1.6821-13.337-1.7092-13.4l-1.1665,0.42486"/>
   <path id="path142" fill="#231f20" d="m377.75,563.52s-0.0275,0.23712-0.0538,0.6495c-0.0813,1.2621-0.35275,4.1629-1.0581,6.9882-0.56975,2.3495-1.4379,4.6493-2.6316,5.8615l-0.0813,0.0754-0.0275,0.10065c-0.0275,0.0116-0.35275,0.77457-0.67825,1.7868-0.32563,1.0247-0.67825,2.2879-0.67825,3.388,0,0.22464,0,0.44928,0.0537,0.66225,0.10875,0.76209,0.37975,2.0125,0.37975,3.4624-0.0275,2.1504-0.5425,4.6748-2.6859,6.7497l-0.18987,0.17499-0.0275,0.2382c0,0.0116-0.86813,13.474-0.86813,23.45,0,2.0369,0.0538,3.9254,0.13563,5.5373,0.0812,1.613,0.217,2.925,0.46112,3.8629l0.59688-0.15049-0.624,0.0752c0,0.0498,0.10875,1.0004,0.70537,1.9998,0.32563,0.50023,0.75975,1.0248,1.3838,1.4127,0.624,0.38789,1.4108,0.64967,2.3874,0.64967,0.27137,0,0.59687-0.0244,0.9225-0.0742,0.16275-0.0254,0.3255-0.0382,0.5155-0.0382,1.0851,0,2.4688,0.46314,3.5269,1.1128,0.5155,0.31262,0.9495,0.68778,1.248,1.0248,0.29838,0.34974,0.407,0.65072,0.407,0.81285,0,0.11235-0.0275,0.18758-0.10875,0.29993-0.16275,0.17485-0.5425,0.42496-1.2751,0.59982-0.70538,0.18758-1.7362,0.29992-3.1199,0.29992-0.48837,0-1.0039-0.0127-1.5736-0.0498l-6.1585-0.16216-0.0813,0.0117,0.0275,0.12504v-0.12504h-0.0275l0.0275,0.12504v-0.12504l-0.19,0.0127c-0.29838,0-0.92238-0.0753-1.4921-0.64963-0.59687-0.57546-1.2209-1.738-1.3565-4.0876-0.2985-5.975-0.9225-8.8247-0.94962-8.8502l-0.59688,0.12504,0.624-0.0498s-0.0537-0.4875-0.10875-1.3502c-0.18987-2.5625-0.59687-8.387-0.59687-13.925,0-3.6742,0.19-7.2373,0.67825-9.5371l0.0275-0.038v-0.0372c0-0.0127,0.0813-0.89964,0.0813-2.3622s-0.0813-3.5248-0.407-5.8997c-0.5155-4.0506-1.7906-19.863-1.7906-27.901,0-1.1498,0.0275-2.1504,0.0813-2.9122l-1.248-0.0879c-0.0537,0.81282-0.0812,1.8248-0.0812,3.0001,0,8.1496,1.248,23.913,1.8178,28.063,0.29838,2.3123,0.37988,4.3121,0.37988,5.7375,0,0.71217-0.0275,1.2748-0.0538,1.6617,0,0.20022,0,0.33804-0.0275,0.43761v0.15057l0.624,0.0499-0.624-0.12507c-0.5425,2.4873-0.70538,6.0745-0.70538,9.7997,0,7.4502,0.70538,15.375,0.70538,15.388v0.0371,0.0382l0.0275,0.12504c0.13562,0.58713,0.65112,3.3627,0.89525,8.5248,0.13562,2.5498,0.841,4.0494,1.7092,4.9121,0.89525,0.87539,1.8991,1.0132,2.3874,1.0132,0.24425,0,0.37988-0.0255,0.407-0.0255l-0.10875-0.62527-0.0275,0.62527,6.1042,0.16216v-0.62421l-0.0275,0.62421c0.56975,0.0382,1.1124,0.0509,1.6279,0.0509,1.9262,0,3.2828-0.2003,4.2051-0.58818,0.48838-0.18758,0.86813-0.42497,1.1395-0.74926,0.27125-0.31265,0.407-0.71323,0.407-1.1128,0-0.61255-0.2985-1.1499-0.7055-1.6257-0.59687-0.71217-1.5192-1.3247-2.523-1.7995-1.031-0.46205-2.1434-0.7747-3.2014-0.7747-0.24425,0-0.46125,0.0116-0.7055,0.0498-0.27125,0.0371-0.51538,0.0625-0.7325,0.0625-0.75963-0.0127-1.3022-0.18758-1.7362-0.45039-0.624-0.39955-1.0039-1.0248-1.248-1.5621-0.0813-0.26281-0.16288-0.51293-0.19-0.68778l-0.0538-0.20031v-0.0498-0.0371l-0.0275-0.0382c-0.18988-0.78742-0.3255-2.075-0.40688-3.6499-0.0813-1.5748-0.13575-3.4368-0.13575-5.4621,0-4.9629,0.24425-10.8,0.46125-15.4,0.0813-2.3006,0.18988-4.3004,0.27138-5.7131,0.0813-1.4127,0.13562-2.2499,0.13562-2.2499l-0.624-0.0499,0.43413,0.44928c2.4959-2.3739,3.0928-5.3116,3.0928-7.6494,0-1.5874-0.27125-2.9249-0.40688-3.6753-0.0275-0.12507-0.0275-0.27456-0.0275-0.44928,0-0.83832,0.29838-2.038,0.624-3.0003,0.16275-0.47478,0.29838-0.89964,0.434-1.1994,0.0537-0.15057,0.0813-0.26289,0.13563-0.35079l0.055-0.12507-0.59688-0.25014,0.46113,0.43761c1.4651-1.5378,2.3332-3.9868,2.9572-6.4244,0.9495-3.9252,1.1395-7.8623,1.1395-7.8751l-1.248-0.0624"/>
   <path id="path144" fill="#231f20" d="m376.75,463.55c0.13563,0.0113,0.2985,0.0241,0.46125,0.0241,0.5155,0,1.1124-0.074,1.6821-0.27429,0.5425-0.18773,1.1122-0.50027,1.4379-1.0874h-0.0275c0.16275-0.26289,0.18988-0.5502,0.18988-0.80008,0-0.59985-0.24413-1.0377-0.407-1.4254-0.217-0.37521-0.3255-0.68775-0.3255-0.87549v-0.0244l-1.2209-0.13782-0.0275,0.16223c0.0275,0.58819,0.24413,1.0375,0.43413,1.4254,0.18987,0.38796,0.3255,0.7005,0.29837,0.87549l-0.0275,0.21188c-0.0813,0.15058-0.35275,0.36247-0.75962,0.50029-0.37988,0.13755-0.86813,0.20021-1.248,0.20021-0.13563,0-0.24413,0-0.32563-0.0127l-0.13562,1.238"/>
   <path id="path146" fill="#231f20" d="m372.35,454.01c0-0.92513-0.10875-1.812-0.10875-2.6124,0-0.18746,0-0.36245,0.0275-0.53718l-1.248-0.0879c-0.0275,0.21298-0.0275,0.42487-0.0275,0.62508,0,0.89991,0.10875,1.7879,0.10875,2.6124h1.248"/>
   <path id="path148" fill="#231f20" d="m382.83,454.37-0.0275-0.27457c0-0.84971,0.24413-1.8004,0.27125-2.8253,0-0.11238,0-0.22464-0.0275-0.33697l-1.248,0.0744,0.0275,0.26263c0,0.78759-0.24412,1.7499-0.27125,2.8253,0,0.12507,0.0275,0.23738,0.0275,0.36246l1.248-0.0879"/>
  </g>
 </g>
</svg>
