<?xml version="1.0" encoding="UTF-8" standalone="no"?>
<!-- Created with Inkscape (http://www.inkscape.org/) -->
<svg id="svg9167" xmlns:rdf="http://www.w3.org/1999/02/22-rdf-syntax-ns#" xmlns="http://www.w3.org/2000/svg" height="216.11" width="279.71" version="1.1" xmlns:cc="http://creativecommons.org/ns#" xmlns:dc="http://purl.org/dc/elements/1.1/">
 <metadata id="metadata9172">
  <rdf:RDF>
   <cc:Work rdf:about="">
    <dc:format>image/svg+xml</dc:format>
    <dc:type rdf:resource="http://purl.org/dc/dcmitype/StillImage"/>
    <dc:title/>
   </cc:Work>
  </rdf:RDF>
 </metadata>
 <g id="layer1" transform="translate(-246.75538,-424.30689)">
  <g id="g9326" fill-rule="nonzero">
   <path id="path924" fill="#ece177" d="m413.61,598.27c-0.13563,0.0244-0.29838,0.0489-0.43413,0.076l-0.13562-0.82476c-3.3912,0-6.5655-3.3886-9.2785-4.8645-3.1471-1.7119-4.9378-4.1482-5.6702-7.6751-1.5464-7.412,1.3836-13.912,5.7516-19.414,1.1124-1.3592,1.7364-3.3723,3.0115-4.5335,1.3836-1.2398,3.554-1.777,4.9105-2.9653,1.1395-0.98483,2.0619-1.9235,3.2014-2.6615,0.37987-0.2496,0.78675-0.47479,1.248-0.66197,1.7906-0.77593,3.8525-0.63757,5.1548-2.2003-0.16275-1.1368-1.3022-2.2627-1.4108-3.3858-0.18988-1.5518,0.16275-3.1146,0.86812-4.4629,1.5736-3.0494,5.2361-5.6621,8.8716-4.7125,0.7325,0.1872,1.4921,0.67283,2.1975,1.3375,0.16287,0.14921,0.32562,0.312,0.46125,0.47477l-0.0813,0.10038h-0.0275c-4.4494,0,0.56975,6.4624,0.841,7.9492-0.59688,0.73794-1.0309,1.5763-1.2751,2.637-0.9495,4.075,1.0039,6.8857,3.8254,9.3355,2.4689,2.1758,5.0191,3.5269,7.6779,1.4515l0.78675,0.0624c2.3061,0.56431,4.775,3.5649,5.0191,6.0365l0.7325,0.25231c-1.058,2.8134-1.7091,4.8997-0.624,8.1119,1.0039,3.0142,3.1471,6.986,6.7555,7.4771,0.54262,0.0733,1.0851,0.0598,1.6278-0.0271l0.0538-0.0136c0.43412,1.115,1.4922,2.3766,1.8991,3.5242,0.56975,1.5763,0.32563,2.8758,2.0619,3.9637,0.84112,0.5399,1.7364,0.21433,2.4689,0.2903,0.21713,0.0217,0.407,0.0867,0.59688,0.22246l0.54262,1.5003c0.0538,0.73794,0,1.5247-0.13562,1.9507-0.67825,2.2735-3.3641,3.4754-5.5075,3.6354-1.7362,0.12752-6.2399-2.7347-2.9842-4.1374-2.1976,0.32556-4.2324,3.6762-6.2671,5.0896l-0.217,0.69996-0.2985-0.0895c-1.2751-0.42322-2.5774-0.91157-3.6625-1.3104-0.94962-0.33912-1.9806-0.41237-2.8488-0.72708-0.92237-0.33642-1.3022-0.96042-2.2789-1.5112-3.1471-1.7499-5.6702,1.2507-7.5965,3.3886-1.2751,1.4108-2.1976,1.286-4.3138,1.0499-1.9534-0.22518-3.8525-1.0011-5.4802-2.0375-3.2285-2.0755-5.2632-3.1634-9.1158-2.5502-0.32563,0.0489-0.624,0.10038-0.9225,0.14921zm4.5036-23.4-0.0275,0.12475c-1.6821-0.0136-4.0695-1.0499-5.6431-0.41237-1.3836,0.5643-2.4688,3.101-2.93,4.5877-0.32563,1.0988-0.56975,3.8118-0.21713,5.0001,0.27138,0.86274,1.8449,3.8118,2.6318,4.3246,0.7325,0.4992,4.1238,0.92513,5.1004,0.8736,1.3022-0.0733,3.3371-0.8736,4.3409-1.6604,2.3604-1.8503,1.5736-7.3008,0.407-9.5254-0.84112-1.6278-1.8991-2.949-3.6626-3.3126"/>
   <path id="path926" fill="#FFF" d="m460.51,584.02c0.5155,2.7374,2.6859,6.3729,3.5811,8.9258-0.7325-0.076-1.6278,0.2496-2.4689-0.2903-1.7362-1.0879-1.4921-2.3875-2.0619-3.9637-0.40687-1.1476-1.465-2.4092-1.8991-3.5242,1.0039-0.16007,1.9805-0.57245,2.8488-1.1476"/>
   <path id="path928" fill="#ece177" d="m464.1,592.94c-0.89525-2.553-3.0656-6.1884-3.5811-8.9258,1.5192-0.97669,2.7401-2.4119,3.3912-3.8118,0.7325-1.6007,0.56975-3.6762,0.841-5.4152,0.2985-1.9995,0.75962-3.1987-0.59688-4.9621-2.306-3.025-9.387-6.7256-12.344-3.3994-1.3565-1.8123-3.3099-5.7001-6.2399-5.3881l-0.35275-0.0489c1.2209-2.4146,1.2751-5.7136,0.97675-8.2883-0.16288-1.7119-4.9106-8.348-7.081-6.6632-1.0581,0.66469-2.279,0.8139-3.4185,1.4135-0.13563-1.0744-1.3022-2.675-1.9262-3.763l0.56975-0.36354c-0.24413-2.0619,2.9572-6.0609,4.8835-6.362,0.27125-0.0489,0.5155-0.0112,0.7325,0.114l0.0813,0.0489c34.293,20.6,28.46,40.801,24.661,56.038-0.18987-0.13565-0.37975-0.20076-0.59687-0.22246"/>
   <path id="path930" fill="#FFF" d="m451.91,576.5c1.1124,2.165,4.4222,5.6268,6.9996,3.9149,1.9262-1.2643,3.12-5.6621,2.2248-7.9275-0.65113-1.7608-5.616-4.6094-7.7864-3.3343l-0.0275,0.0244c-1.7635,1.6739-2.3332,5.4749-1.4109,7.3224zm-2.6859,1.2263c-1.0851-3.2122-0.434-5.2985,0.624-8.1119l-0.7325-0.25231c-0.24412-2.4716-2.713-5.4722-5.0191-6.0365l-0.78674-0.0624c0.16275-0.10038,0.27137-0.21161,0.407-0.33641,0.13562-0.12475,0.29837-0.27673,0.434-0.42594,0.43412-0.4368,0.75975-0.94956,1.0581-1.5112l0.35275,0.0489c2.93-0.312,4.8834,3.5758,6.2399,5.3881,2.9572-3.3262,10.038,0.3744,12.344,3.3994,1.3565,1.7635,0.89537,2.9626,0.59687,4.9621-0.27125,1.739-0.10875,3.8145-0.841,5.4152-0.65112,1.3999-1.872,2.8351-3.3912,3.8118-0.86825,0.57517-1.8449,0.98754-2.8488,1.1476l-0.0538,0.0136c-0.54262,0.0869-1.0851,0.10038-1.6278,0.0271-3.6084-0.49105-5.7516-4.4629-6.7555-7.4771"/>
   <path id="path932" fill="#FFF" d="m433.09,549.84c-0.27125-1.4867-5.2904-7.9492-0.841-7.9492h0.0275l0.0813-0.10037c0.54263,0.5616,1.031,1.2236,1.4108,1.8991,0.624,1.0879,1.7906,2.6886,1.9262,3.763-0.37975,0.21161-0.78675,0.46121-1.1665,0.82475-0.48837,0.46122-0.94962,0.91158-1.3295,1.3999l-0.10875,0.16279"/>
   <path id="path934" fill="#FFF" d="m443.29,556.04c0.24412-3.0006-1.031-5.5617-3.337-6.8748v-0.0113c-2.6316,0-4.5579,0.624-5.209,3.7602-0.54263,2.6886,0.56975,6.7012,3.337,7.2899,3.5541,0.7488,4.9378-0.9387,5.209-4.1645zm-10.092-6.362c0.37987-0.48834,0.84112-0.9387,1.3295-1.3999,0.37975-0.36353,0.78675-0.61313,1.1665-0.82475,1.1395-0.59958,2.3604-0.7488,3.4185-1.4135,2.1704-1.6848,6.9181,4.9513,7.081,6.6632,0.29837,2.5747,0.24412,5.8737-0.97675,8.2883-0.29838,0.5616-0.624,1.0744-1.0581,1.5112-0.13562,0.14922-0.29837,0.30114-0.434,0.42594-0.13562,0.12475-0.24425,0.23604-0.407,0.33641-2.6588,2.0755-5.209,0.72439-7.6779-1.4515-2.8215-2.4499-4.7749-5.2606-3.8254-9.3355,0.24425-1.0608,0.67825-1.8991,1.2751-2.637l0.10875-0.16279"/>
   <path id="path936" fill="#232d5b" d="m459.54,551.49c0.21712,0.21434,0.7325,0.41239,1.3565,0.5616-0.48825-0.29844-0.92238-0.4992-1.3565-0.5616zm5.1548,41.675c3.7982-15.236,9.6312-35.438-24.661-56.038l0.54263-0.88716c8.329-5.0001,29.789,2.9246,29.789,2.9246s13.538,4.5742,12.724,26.251c-0.84112,21.664-17.716,29.575-17.716,29.575l-0.13563-0.32556c-0.0538-0.63757-0.217-1.2507-0.54262-1.5003"/>
   <path id="path938" fill="#cd1f65" d="m418.11,574.87c1.7635,0.36355,2.8215,1.6848,3.6626,3.3126,1.1666,2.2247,1.9534,7.6752-0.407,9.5254-1.0038,0.78678-3.0386,1.5871-4.3409,1.6604-0.97662,0.0515-4.3679-0.3744-5.1004-0.8736-0.78688-0.51277-2.3604-3.4618-2.6318-4.3246-0.35263-1.1883-0.10875-3.9013,0.21712-5.0001,0.46125-1.4867,1.5464-4.0234,2.93-4.5877,1.5736-0.63756,3.961,0.39881,5.6431,0.41237l0.0275-0.12475"/>
   <path id="path940" fill="#ece177" d="m309.53,594.58c-2.713,0.0624-3.9881,1.6604-6.05,3.0739,8.546-10.413,21.46-14.55,21.46-14.55,38.769-12.911,46.881-28.739,46.881-28.739s9.577-17.084,8.1391-32.084c-1.465-15,8.9259-21.04,8.9259-21.04,34.591-31.251,86.898-36.875,86.898-36.875s0.407,1.2507,2.062-1.0364c1.682-2.3006,15.627-8.5379,15.627-8.5379s2.089-1.6766,7.081-4.3734c5.0191-2.713,2.713,1.4488,2.713,1.4488s0.217-1.0364-3.961,4.1754c-4.151,5.1982,1.465,2.0728,1.465,2.0728s5.209-4.5742,13.538-6.4489,2.496,2.9138,2.496,2.9138l-9.36,4.5877c-6.05,4.1618,0.814,2.4987,0.814,2.4987l11.666-3.1254c11.476-0.62399,2.713,3.5378,2.713,3.5378-16.658,5.0001-9.984,4.7858-9.984,4.7858l9.36,0.84104c7.922,2.2844,0.841,4.7858,0.841,4.7858l-25.611,2.9246s-4.8021,0.82476-2.9301,2.9138c1.872,2.0755,1.872-1.2507,6.24,5.2117,4.368,6.4489-2.279,4.3761-2.279,4.3761s-4.992-3.337-10.228-3.5514c-5.1819-0.19805-8.7359-2.5014-11.639-3.9502-2.93-1.4623-4.802-1.8747-13.348,0-8.5461,1.8747-16.034,5.6132-38.525,18.739-22.518,13.126-20.239,26.46-19.398,41.249,0.841,14.802,9.794,14.376,9.794,14.376l0.0275,0.624c-1.1395,0.73793-2.0619,1.6766-3.2014,2.6615-1.3565,1.1883-3.5269,1.7255-4.9105,2.9653-1.2751,1.1612-1.8991,3.1742-3.0115,4.5335-4.368,5.502-7.298,12.002-5.7516,19.414,0.7325,3.5269,2.5231,5.9632,5.6702,7.6751,2.713,1.4759,5.8872,4.8645,9.2785,4.8645l0.13562,0.82477c-2.93,0.51275-5.2361,1.1503-8.0305,2.2627-3.1471,1.2751-6.3214,3.4998-9.9839,3.1362-3.8254-0.38796-5.1276-2.8731-7.7321-5.3365-0.94962,1.2372-1.7635,2.0755-2.903,2.3739-0.7325,0.20077-1.6006,0.17635-2.713-0.11125-1.5464-0.37711-4.6664-2.2762-4.8021-4.2133l-0.27125,0.0244c-1.1124,3.0386-5.2632,4.8889-8.546,5.2388-1.8449-0.72437-3.5812-1.5003-5.1276-2.089-1.2751,2.9626-5.3718,3.6517-8.1934,3.451-3.1471-0.22519-5.8059-3.611-8.2476-3.3018-4.0424,0.52632-6.8368-3.5731-10.852-3.1227-3.4999,0.39882-6.6741,2.5855-10.201,3.3235-3.6084,0.76236-6.9182-0.17364-10.174-0.63756-0.81388-2.0728-3.6082-4.8238-5.8601-4.7614"/>
   <path id="path942" fill="#b2ddd3" d="m453.35,569.15c2.1704-1.2751,7.1352,1.5736,7.7864,3.3343,0.89525,2.2654-0.2985,6.6632-2.2248,7.9275-2.5774,1.7119-5.8872-1.7499-6.9996-3.9149-0.92237-1.8476-0.35262-5.6485,1.4109-7.3224l0.0275-0.0244"/>
   <path id="path944" fill="#b2ddd3" d="m439.95,549.17c2.306,1.3131,3.5811,3.8742,3.337,6.8748-0.27125,3.2258-1.6549,4.9133-5.209,4.1645-2.7672-0.58873-3.8796-4.6013-3.337-7.2899,0.65112-3.1362,2.5774-3.7602,5.209-3.7602v0.0113"/>
   <path id="path946" fill="#FFF" d="m434.96,473.32-59.578,1.4623c12.073-5.0001,59.578-1.4623,59.578-1.4623"/>
   <path id="path948" fill="#FFF" d="m399.96,491.23-68.558,8.7495c15.627-6.6632,68.558-8.7495,68.558-8.7495"/>
   <path id="path950" fill="#FFF" d="m376.11,511.88-56.566,5.5997c8.9529-3.1742,52.551-5.3989,56.566-5.5997"/>
   <path id="path952" fill="#FFF" d="m356.01,539.35c3.5269-1.8774,22.057-0.82747,22.057-0.82747l-22.057,0.82747"/>
   <path id="path954" fill="#231f20" d="m376.41,595.91c-0.0275,0.12475-0.0275,0.24418-0.0275,0.36084l0.0275,0.2523,0.59675-0.0733-0.59675,0.0434c0.0275,0.64841,0.3255,1.2317,0.67825,1.7499,0.59688,0.77863,1.4108,1.4379,2.2246,1.9615,0.841,0.5209,1.6821,0.8953,2.3332,1.0635l0.16275-0.605-0.16275,0.605c0.67826,0.17364,1.3022,0.26045,1.8449,0.26045,0.434,0,0.841-0.0489,1.1936-0.14921,0.67825-0.17635,1.2751-0.5209,1.7906-0.96584,0.5155-0.44765,0.97675-0.9984,1.465-1.6332l-0.51538-0.37982-0.407,0.45307c1.248,1.191,2.2246,2.4282,3.4184,3.4645,1.1666,1.0364,2.6045,1.8394,4.6392,2.0402,0.2985,0.0299,0.59687,0.0434,0.89538,0.0434,3.5811-0.0162,6.5926-2.0944,9.4141-3.2231,2.7402-1.096,4.992-1.7173,7.895-2.2247l0.0275-0.002c0.10875-0.0217,0.24412-0.0489,0.40687-0.0733,0.2985-0.0489,0.624-0.10037,0.9225-0.14921,0.67825-0.11125,1.3022-0.16279,1.8991-0.16279,1.248,0.002,2.2518,0.23875,3.337,0.68098,1.058,0.44221,2.1432,1.1015,3.4455,1.9398,1.6821,1.0825,3.6626,1.8937,5.7245,2.1352,0.7325,0.0786,1.3294,0.14921,1.872,0.14921,0.54263,0,1.0852-0.0733,1.5735-0.30115,0.48837-0.2306,0.94963-0.59415,1.4109-1.1015,0.75962-0.84918,1.6006-1.8042,2.4959-2.5231,0.89538-0.72437,1.8178-1.1883,2.7402-1.1856,0.48825,0.002,1.0038,0.12475,1.6006,0.44765v-0.003c0.407,0.24417,0.70537,0.50191,1.0581,0.78406,0.35263,0.27401,0.75963,0.57245,1.3294,0.77321,0.97662,0.34726,2.0076,0.42051,2.8215,0.72438,1.0852,0.39881,2.4146,0.88716,3.7169,1.3185l0.29838,0.0922,0.16287-0.59686-0.19,0.58872c0.21713,0.0841,0.46125,0.1465,0.65113,0.21162v0.005,0.002c1.1937,0.37168,2.3061,0.51547,3.3642,0.51547,2.4959-0.005,4.6392-0.77864,7.1352-1.1558l0.0275-0.002c0.24412-0.0434,0.56975-0.038,0.9495-0.0434,0.37987-0.009,0.81387-0.0244,1.248-0.1872l-0.24413-0.58602,0.217,0.59144c0.56975-0.20891,0.92238-0.60501,1.2209-0.92786,0.16275-0.16278,0.29837-0.31199,0.43412-0.4178l0.13563-0.11663,0.0275-0.0271,0.0275-0.002-0.24413-0.58601,0.217,0.58872c0.16275-0.057,0.35263-0.0841,0.56975-0.0841,0.434-0.002,1.058,0.13837,1.6549,0.31471,0.624,0.17092,1.2751,0.3744,1.9262,0.43951,0.24425,0.0271,0.48837,0.038,0.75962,0.038,1.7635-0.009,3.1742-0.61586,4.6665-0.86817,0.65113-0.114,1.465-0.11663,2.2789-0.1465,0.84112-0.0299,1.7092-0.0814,2.496-0.3527,0.86812-0.28487,1.465-0.5833,2.0348-0.7922,0.56975-0.21162,1.1395-0.3554,2.0076-0.37712h0.13575c0.92238,0.005,1.3836,0.12213,1.8176,0.33643,0.46125,0.21704,0.94962,0.60771,1.7635,1.1422,2.6045,1.6739,6.3756,1.8856,9.36,2.0728l0.0812-1.248c-2.9844-0.1655-6.5928-0.45308-8.7631-1.8747-0.78675-0.49649-1.2751-0.8953-1.872-1.21-0.624-0.31471-1.3565-0.47206-2.3874-0.46663h-0.13575-0.0275c-1.0038,0.019-1.7634,0.20618-2.4145,0.45036-0.65113,0.24689-1.2209,0.52904-1.9806,0.78135-0.59675,0.20347-1.3565,0.26587-2.1432,0.2903-0.81387,0.0299-1.6278,0.0271-2.4418,0.16277-1.682,0.29844-3.0114,0.85732-4.4765,0.84918-0.217,0-0.434-0.009-0.624-0.0299-0.46111-0.0461-1.0851-0.22247-1.7091-0.40152-0.65113-0.17635-1.3294-0.35813-2.0076-0.35813-0.32562,0-0.67825,0.0408-0.97675,0.15464l-0.0275,0.005c-0.24412,0.10313-0.434,0.2523-0.59687,0.40424-0.24413,0.22789-0.46113,0.4802-0.67825,0.6891-0.18988,0.20891-0.40688,0.3527-0.5155,0.38796v0.005c-0.217,0.0733-0.48825,0.10038-0.841,0.10575-0.3255,0.009-0.7325-0.005-1.1395,0.0624l0.0812,0.61586-0.0812-0.61858c-2.6316,0.41238-4.7478,1.1476-6.9452,1.1422-0.94963,0-1.8991-0.12475-2.9844-0.4585l-0.18987,0.59686,0.217-0.58872c-0.24413-0.0841-0.46125-0.1465-0.65113-0.21161l-0.0275-0.005-0.29837-0.0923-0.19,0.59686,0.21712-0.59144c-1.2751-0.42051-2.5774-0.90615-3.6626-1.3077-1.031-0.36898-2.089-0.44765-2.8488-0.72438-0.37975-0.13836-0.62388-0.32014-0.9495-0.57787-0.32563-0.25503-0.70538-0.5833-1.248-0.89259-0.73249-0.4151-1.4921-0.60773-2.1975-0.605-1.3565,0.002-2.5231,0.65112-3.527,1.4623-1.0038,0.81391-1.872,1.8177-2.6588,2.6588-0.37975,0.42595-0.67824,0.66199-0.97663,0.79764-0.29849,0.13565-0.59686,0.18991-1.0581,0.19263-0.43413,0-1.0039-0.0624-1.7364-0.1438-1.7906-0.21162-3.6354-0.94955-5.1819-1.9452-1.3294-0.84375-2.4689-1.5437-3.6354-2.0402-1.1937-0.49649-2.4146-0.77864-3.8254-0.77592-0.65114,0-1.3565,0.057-2.0891,0.17633-0.3255,0.0515-0.624,0.10038-0.92237,0.15194-0.16274,0.0244-0.29838,0.0489-0.46125,0.0786l0.10875,0.61315-0.10875-0.61587c-2.9571,0.51548-5.3175,1.1693-8.139,2.2952-3.0115,1.2344-5.8872,3.1498-8.953,3.1335-0.27138,0-0.5155-0.0112-0.75963-0.0352-1.7635-0.18719-2.903-0.81933-3.961-1.7418-1.0581-0.91973-2.0349-2.1569-3.3642-3.4266l-0.51537-0.4802-0.407,0.55075c-0.48838,0.605-0.89525,1.0906-1.3022,1.446-0.43412,0.35811-0.81388,0.5833-1.2751,0.7081-0.27136,0.0679-0.56975,0.1085-0.89525,0.1085-0.43412,0-0.9225-0.0705-1.5194-0.22519h-0.0275c-0.624-0.15192-1.7635-0.69453-2.6587-1.4081-0.46126-0.3554-0.89526-0.75421-1.1666-1.1449-0.29837-0.3934-0.46124-0.77592-0.48837-1.0961v-0.13565l0.0275-0.13295-1.2479-0.22789"/>
   <path id="path958" fill="#231f20" d="m455.25,616.23,0.24412-0.0217c0.24413,0.009,0.3255,0.0596,0.54263,0.2089,0.217,0.14651,0.5155,0.41781,1.0038,0.56974v-0.002c0.97675,0.31471,1.6008,0.40424,2.6589,0.50191,0.97663,0.0922,2.089,0.39068,3.2556,0.3961,0.67825,0,1.3836-0.1085,2.0619-0.44494v-0.002c0.35263-0.1872,0.75963-0.50191,1.2751-0.91157,0.78675-0.605,1.7634-1.3945,2.7401-2.0185,0.97663-0.63214,1.9805-1.0662,2.5502-1.05,0.29838,0.005,0.46125,0.0679,0.624,0.22248,0.16275,0.15735,0.35263,0.46121,0.46126,1.0201l1.2208-0.23604c-0.13563-0.71895-0.37976-1.286-0.81388-1.6875-0.40687-0.40153-0.9495-0.57516-1.4921-0.56974-0.7325,0.005-1.4379,0.26859-2.1432,0.62943-1.0852,0.54531-2.1434,1.343-3.0658,2.0483-0.46125,0.35269-0.86825,0.68097-1.2209,0.9387-0.32562,0.25774-0.59687,0.45308-0.67825,0.4992-0.46125,0.22789-0.94963,0.312-1.5192,0.312-0.94963,0.002-2.0078-0.27673-3.1471-0.38796-1.0581-0.10312-1.4651-0.16279-2.3875-0.45036-0.18988-0.0596-0.37988-0.18991-0.65113-0.39881-0.27125-0.19807-0.7325-0.44223-1.2751-0.4368-0.13562,0-0.29837,0.0136-0.43412,0.0406l0.19,1.2317"/>
   <path id="path960" fill="#231f20" d="m421.01,634.12c0.7325,0.23604,1.4921,0.68911,2.2518,1.172,0.78675,0.47749,1.6008,0.99025,2.5502,1.2778,1.3565,0.42867,2.8215,0.52905,4.2595,0.53177,0.46113,0,0.92238-0.0112,1.3565-0.0271,2.4145-0.0895,3.9881-1.0635,5.833-2.2491,0.65113-0.4178,1.465-1.0608,2.2789-1.598,0.84112-0.54261,1.6821-0.93329,2.1705-0.91701h0.0275l0.0275-0.62399-0.56975,0.24689c0.65112,1.4922,1.9805,2.6994,3.554,3.5595,1.5465,0.85732,3.3371,1.3701,5.0462,1.3728,0.86825,0,1.7092-0.14107,2.4689-0.46664l-0.48837-1.1476c-0.56975,0.24146-1.248,0.36355-1.9805,0.36355-1.4379,0.002-3.0658-0.45307-4.4494-1.2182-1.4108-0.75965-2.5231-1.8286-2.9842-2.9545l-0.16287-0.35812-0.37975-0.0217-0.10875-0.002c-1.0039,0.0163-1.9262,0.54804-2.8488,1.1205-0.86813,0.57517-1.7091,1.2372-2.2789,1.5926-1.8449,1.191-3.1471,1.967-5.209,2.0538-0.43412,0.0136-0.86825,0.0244-1.3022,0.0244-1.3838,0-2.7131-0.10575-3.9068-0.47477-0.7055-0.21977-1.4651-0.6674-2.2248-1.1476-0.78675-0.4802-1.6278-0.99838-2.5502-1.2995l-0.37975,1.191"/>
   <path id="path962" fill="#231f20" d="m387.78,616.86c0.217-0.0408,0.407-0.0597,0.59687-0.0597,0.89525,0,1.6821,0.35541,2.6045,0.77321,0.9225,0.40968,1.8991,0.88174,3.1471,0.88445,0.37987,0,0.78675-0.0434,1.1666-0.14107,0.7325-0.17906,1.248-0.53448,1.7362-0.79221,0.48838-0.26317,0.89538-0.4395,1.438-0.44222v-0.14651,0.14651-0.14651,0.14651h0.0275c0.46113,0,0.7325,0.0624,0.92238,0.14108,0.27137,0.11662,0.43412,0.28215,0.67825,0.65112,0.24425,0.36083,0.56975,0.87902,1.1395,1.4216,0.78675,0.75694,1.8449,1.1178,2.9301,1.3077,1.0851,0.18992,2.2518,0.20619,3.337,0.20619,0.29838,0,0.59688-0.003,0.89525-0.003,0.46125,0,0.89525,0.005,1.3022,0.0244,0.24413,0.0136,0.5155,0.019,0.75963,0.019,3.12,0.005,5.1819-1.0852,7.705-2.3875l-0.59687-1.1096c-2.5231,1.3158-4.2865,2.2437-7.1081,2.2464-0.24412,0-0.46112-0.002-0.70537-0.0163-0.434-0.0217-0.89525-0.0271-1.3565-0.0271-0.29838,0-0.59688,0.002-0.89525,0.002-1.0581,0-2.1705-0.0217-3.12-0.1872-0.97675-0.16279-1.7635-0.47206-2.279-0.97669-0.59688-0.57787-0.841-1.0961-1.2751-1.636-0.217-0.26317-0.51537-0.52362-0.92237-0.6864-0.37988-0.1655-0.841-0.24146-1.4108-0.24146v0.62671l0.0275-0.624-0.0538-0.002c-0.84112,0-1.4922,0.30658-2.0348,0.59415-0.54262,0.29844-0.97675,0.56703-1.4109,0.67555-0.3255,0.0733-0.59688,0.10575-0.89525,0.10575-0.89525,0.002-1.7364-0.35268-2.6316-0.77048-0.89525-0.40968-1.8991-0.88174-3.12-0.88445-0.27125,0-0.54262,0.0244-0.841,0.0786l0.24413,1.229"/>
   <path id="path964" fill="#231f20" d="m290.08,596.68c0.841,0.75421,1.6821,1.5084,2.6588,2.1134,0.97675,0.60501,2.089,1.0608,3.3912,1.1937,0.43413,0.0461,0.86825,0.0679,1.3022,0.0679,2.3061,0,4.585-0.61314,6.4299-1.8856,1.0581-0.73524,1.8991-1.4894,2.7401-2.0321,0.86825-0.54532,1.7092-0.90073,2.9572-0.93328h0.0538c0.86825-0.0112,2.0348,0.57516,3.0115,1.4569,1.0038,0.87089,1.8449,2.0158,2.1975,2.9084l0.13563,0.33914,0.35275,0.0515c2.3332,0.33099,4.7749,0.93056,7.3794,0.93327,0.97675,0,1.9805-0.0841,3.0115-0.30115,1.8449-0.38796,3.5541-1.1368,5.209-1.8232,1.6821-0.68911,3.2828-1.305,4.9378-1.4949,0.18987-0.019,0.35262-0.0299,0.54262-0.0299,1.5192-0.005,2.9571,0.72168,4.4493,1.5302,1.5194,0.79492,3.12,1.6712,5.0462,1.6766,0.27138,0,0.54263-0.019,0.814-0.0515l0.24413-0.0162c0.89525-0.019,2.0619,0.67012,3.3912,1.4894,1.3022,0.80035,2.7672,1.7011,4.5036,1.8313,0.2985,0.0217,0.624,0.0325,0.94963,0.0325,1.4379,0,3.0385-0.21161,4.4765-0.7922,1.4108-0.57516,2.713-1.5464,3.3641-3.0712l-0.56975-0.24417-0.217,0.58601c1.5192,0.57787,3.2556,1.3511,5.1275,2.0836,3.0929,1.2426,6.457,2.4119,9.6584,2.4173,2.7674,0.0112,5.4261-0.93327,7.4066-3.4754l-0.97675-0.7705c-1.7634,2.2166-3.9339,2.9816-6.4299,2.9952-2.8758,0.002-6.1585-1.0961-9.1971-2.3278v-0.002c-1.8449-0.71624-3.5811-1.4922-5.1548-2.089l-0.56975-0.21433-0.24412,0.55347c-0.46125,1.1313-1.4379,1.8991-2.6859,2.401-1.2209,0.4992-2.6859,0.70268-3.9881,0.69996-0.2985,0-0.59688-0.009-0.86825-0.0299-1.3022-0.0869-2.6316-0.84646-3.9339-1.6495-1.3022-0.7895-2.5774-1.6522-4.0424-1.6712-0.13563,0-0.27125,0.009-0.407,0.0244-0.217,0.0271-0.434,0.0408-0.65113,0.0408-1.5192,0.005-2.93-0.72167-4.4494-1.5302-1.5192-0.79492-3.1199-1.6712-5.0461-1.6766-0.21712,0-0.46125,0.0135-0.67825,0.0408-1.872,0.21161-3.5812,0.88715-5.2634,1.579-1.682,0.69183-3.337,1.4054-5.019,1.7526-0.9225,0.20077-1.8449,0.27674-2.7402,0.27674-2.4145,0.002-4.7749-0.57516-7.2166-0.91972l-0.0812,0.61857,0.59687-0.2279c-0.46125-1.1557-1.3836-2.3956-2.5231-3.3913-1.1395-0.98754-2.4689-1.7553-3.8525-1.7689l-0.10875,0.002c-1.465,0.0271-2.6045,0.5019-3.5812,1.1286-0.97663,0.624-1.7905,1.3782-2.7944,2.0565-1.5735,1.1042-3.6082,1.6631-5.6974,1.6631-0.40688,0-0.78675-0.019-1.1938-0.0598-1.058-0.114-1.9805-0.48292-2.8486-1.0147-0.841-0.53175-1.655-1.2317-2.4689-1.9778l-0.841,0.92786"/>
   <path id="path966" fill="#231f20" d="m290.46,596.19,0.5425-0.31743c-0.18988-0.32285-0.48825-0.60771-0.86813-0.82747l-0.75962,1.0011c0.24412,0.20619,0.46125,0.40695,0.65112,0.60229l0.97663-0.77593-0.5425,0.31743,0.434-0.45579c-0.217-0.20619-0.434-0.40695-0.65113-0.59957l-0.43412,0.45578-0.29838,0.54532c0.217,0.12751,0.35275,0.2686,0.407,0.37168l0.54263-0.31742,0.434-0.45579-0.434,0.45579"/>
   <path id="path968" fill="#231f20" d="m290,596.62,0.0275,0.0271,0.92237-0.86274-0.0275-0.0271"/>
   <path id="path970" fill="#231f20" d="m247.81,597.14c-0.434,0.20348-0.70537,0.56974-0.841,0.94957-0.16275,0.37982-0.217,0.79491-0.217,1.2154,0,0.87089,0.24413,1.777,0.81388,2.4119,0.35275,0.36082,0.78675,0.5833,1.248,0.74065,0.67825,0.23332,1.4379,0.32285,2.1704,0.37169,0.73263,0.0461,1.4109,0.0489,1.872,0.0705,0.21713,0.0136,0.46125,0.019,0.67825,0.019,1.9262,0.0113,3.3099-0.50733,4.368-1.4026,1.0581-0.89259,1.8449-2.0755,2.9572-3.4537l-0.48837-0.38525-0.0812,0.62129c0.3255,0.0325,0.56975,0.13565,0.81387,0.30929,0.37988,0.25774,0.7325,0.69724,1.1395,1.1666,0.40688,0.46392,0.92238,0.97669,1.682,1.2317h-0.0275c0.56975,0.18449,1.2209,0.22246,1.9262,0.22789,1.0852,0,2.2519-0.12213,2.9572-0.21433,3.3641-0.43137,6.24-1.8964,8.953-3.1254,1.0038-0.4585,1.8178-0.8953,2.5774-0.88445,0.217,0,0.434,0.0271,0.65112,0.0895,0.56975,0.16008,1.1666,0.54804,1.8178,0.99569,0.65113,0.44494,1.3294,0.94684,2.089,1.2724l0.24413-0.57787-0.24413,0.57245c0.841,0.34998,1.7091,0.64298,2.6588,0.64298,0.67825,0.002,1.3836-0.15192,2.0619-0.51005,0.46125-0.23873,0.86825-0.59143,1.1938-1.0255,0.29837-0.43137,0.5155-0.95499,0.54262-1.5383,0-0.34998-0.10875-0.71623-0.2985-1.0472l-1.058,0.65927c0.0537,0.13023,0.10875,0.2496,0.10875,0.38796,0,0.2306-0.10875,0.52904-0.32562,0.80577-0.18988,0.27401-0.48825,0.51547-0.7325,0.64841-0.5155,0.26587-1.0038,0.36897-1.4921,0.37169-0.70537,0-1.4108-0.21975-2.1704-0.54532v-0.002c-0.59688-0.23602-1.2209-0.67825-1.872-1.1368-0.65113-0.45578-1.3294-0.93328-2.1705-1.172-0.35263-0.0976-0.67825-0.14108-1.0038-0.14108-1.1938,0.009-2.1705,0.58873-3.0658,0.99839-2.7401,1.2453-5.5618,2.6289-8.6274,3.0223-0.67825,0.0895-1.7906,0.20348-2.7945,0.20348-0.624,0.005-1.2209-0.057-1.4921-0.16008l-0.0275-0.003c-0.54263-0.17633-0.97663-0.69181-1.5192-1.3212-0.27138-0.30929-0.56975-0.63757-0.94963-0.91158-0.37975-0.27401-0.86812-0.48564-1.4379-0.53446l-0.32563-0.0299-0.217,0.26588c-1.1124,1.4216-1.872,2.5475-2.7672,3.2638-0.86812,0.71353-1.7906,1.1069-3.5541,1.115-0.18988,0-0.40688-0.005-0.624-0.0162-0.67825-0.0325-1.6278-0.0244-2.5231-0.13022-0.434-0.0515-0.841-0.13294-1.1665-0.24689-0.35275-0.114-0.624-0.26587-0.75975-0.41781-0.24412-0.24145-0.48825-0.94141-0.46112-1.5518,0-0.293,0.0275-0.5643,0.13562-0.74879,0.0538-0.1872,0.13563-0.26316,0.18988-0.29301l-0.5155-1.1232"/>
   <path id="path972" fill="#231f20" d="m306.47,614.57,0.2985-0.0163c0.65112,0,1.1666,0.27944,1.7634,0.69724,0.59688,0.40696,1.2751,0.95227,2.2248,1.2127,0.5155,0.14108,0.97663,0.19805,1.4379,0.19805,1.5465-0.0112,2.7944-0.60771,4.0695-0.84646,1.6821-0.33912,3.2014-0.61585,4.8835-1.0472v-0.003c0.841-0.21977,1.655-0.59687,2.4689-0.936,0.81387-0.34184,1.6006-0.64299,2.2246-0.73794l0.2985-0.0244c0.624,0,1.2209,0.2713,1.8449,0.69453,0.624,0.42052,1.2208,0.97126,1.8719,1.4162v-0.002c1.3566,0.94414,2.6318,1.305,4.3138,1.2941,0.24425,0,0.5155-0.005,0.81388-0.019,1.3838-0.076,2.7674-0.56702,4.1239-1.0147,1.3565-0.45037,2.6316-0.8546,3.7711-0.85189,1.0038,0.009,1.8449,0.26587,2.6859,1.0662l0.86813-0.90072c-1.058-1.031-2.306-1.4216-3.554-1.4135-1.4109,0.003-2.8216,0.46664-4.151,0.91429-1.3565,0.45307-2.6859,0.8953-3.8254,0.95227-0.24413,0.0112-0.48826,0.0162-0.7325,0.0162-1.5464-0.0112-2.3875-0.25502-3.5811-1.0716-0.56975-0.37168-1.1938-0.93327-1.8991-1.4189-0.70538-0.48291-1.5465-0.90886-2.5502-0.91157-0.16288,0-0.32563,0.0136-0.48838,0.0408-0.841,0.13022-1.6821,0.47477-2.5231,0.81932-0.81388,0.34728-1.6278,0.70268-2.306,0.88174l0.16275,0.605-0.13563-0.605c-1.6279,0.41781-3.1471,0.69182-4.8292,1.031-1.465,0.29572-2.6316,0.8329-3.8254,0.82205-0.35263,0-0.70538-0.0434-1.0852-0.15194-0.65113-0.17091-1.2208-0.59415-1.8719-1.0445-0.65112-0.43951-1.4109-0.91158-2.4689-0.90886-0.13563,0-0.2985,0.005-0.43413,0.0244l0.13563,1.2398"/>
   <path id="path974" fill="#231f20" d="m271.06,634.84c0.35275,0.83832,1.0852,1.3728,1.8991,1.6631,0.814,0.29573,1.7635,0.39068,2.7131,0.39339,2.1161-0.002,4.395-0.49376,5.6159-0.67282l-0.0275,0.003c1.9805-0.27944,3.7711-0.93872,5.2632-1.2588,0.2985-0.0651,0.59688-0.095,0.84113-0.095,0.70537,0.002,1.2751,0.18991,1.8991,0.50733,0.59688,0.31472,1.2209,0.76508,1.9534,1.2344,3.0928,2.0728,6.6198,3.2556,10.554,3.5893,1.7092,0.13836,3.5812,0.21703,5.426,0.21703,1.7364,0,3.4999-0.0705,5.1005-0.23061,2.9844-0.28215,4.992-1.7472,7.1352-2.9952l-0.624-1.0798c-2.2246,1.305-4.0152,2.5882-6.6198,2.8297-1.5735,0.15735-3.2828,0.2279-4.992,0.2279-1.8176,0-3.6354-0.0814-5.3175-0.21434-3.744-0.32014-7.0539-1.4325-9.9839-3.3858-0.67825-0.45036-1.3294-0.92786-2.0619-1.3022-0.73262-0.37711-1.5465-0.64841-2.4689-0.64841-0.35275,0-0.70538,0.0406-1.0852,0.12475-1.655,0.35268-3.3912,0.99296-5.1819,1.2398-1.2751,0.19262-3.4998,0.65926-5.426,0.65926-0.86825,0-1.6821-0.095-2.279-0.31743-0.59687-0.22517-1.0038-0.53717-1.2209-1.0065l-1.1124,0.51768"/>
   <path id="path976" fill="#231f20" d="m413.44,596.87c-0.16275,0.0136-0.27138,0.0244-0.407,0.0244-1.465,0.009-3.0114-0.76236-4.5579-1.7743-1.5192-1.0065-2.9842-2.2274-4.4222-3.0115-3.0114-1.6522-4.6392-3.8715-5.3718-7.2546-0.27125-1.3158-0.407-2.5991-0.407-3.8525,0-5.5834,2.5502-10.611,6.0772-15.044,0.59688-0.75151,1.0309-1.6224,1.4921-2.4282,0.43412-0.80578,0.89537-1.541,1.4379-2.0321,0.59688-0.5426,1.438-0.97127,2.3061-1.4054,0.89525-0.4395,1.8178-0.88173,2.5774-1.5546,1.1666-1.0065,2.0619-1.9154,3.12-2.6045,0.37976-0.23603,0.75963-0.44222,1.1666-0.61043v-0.002c0.78675-0.35269,1.7362-0.51004,2.6859-0.77864,0.9495-0.26859,1.9534-0.67554,2.713-1.598v-0.0113l0.0537-0.0624-1.0039-0.75151-0.0275,0.0489,0.48838,0.3771-0.48838-0.39881c-0.51537,0.64028-1.2208,0.94685-2.089,1.1937-0.841,0.24689-1.8449,0.40695-2.8486,0.8329l0.27125,0.57245-0.24413-0.57788c-0.48837,0.20619-0.9225,0.45308-1.3294,0.71353-1.248,0.78949-2.1705,1.7526-3.2827,2.7184-0.56975,0.51819-1.4109,0.93599-2.3061,1.3728-0.89525,0.43951-1.8178,0.89801-2.6045,1.598-0.7325,0.6674-1.248,1.522-1.7092,2.3522-0.46113,0.8329-0.89525,1.6495-1.3836,2.2572-3.6082,4.5552-6.3214,9.8456-6.3214,15.822,0,1.3375,0.13575,2.7076,0.43412,4.1075,0.75963,3.6707,2.713,6.3268,5.9958,8.0984,1.2751,0.68911,2.7674,1.8991,4.3409,2.9572,1.6008,1.0499,3.337,1.9751,5.2361,1.9805,0.19,0,0.35275-0.0163,0.5155-0.0299l-0.10875-1.2453"/>
   <path id="path978" fill="#231f20" d="m438.78,545.51c-0.92237,0.5833-2.089,0.73522-3.3912,1.3918v0.005c-0.407,0.2279-0.841,0.51005-1.3022,0.917v-0.002c-0.48837,0.47208-0.97675,0.94414-1.3836,1.4678l-0.0275,0.019-0.10875,0.18178,0.51537,0.3527-0.48825-0.38797c-0.65112,0.80034-1.1124,1.7363-1.3838,2.8839-0.18987,0.75423-0.27125,1.4813-0.27125,2.1758,0,1.6278,0.48838,3.0739,1.248,4.349,0.78675,1.2751,1.8449,2.3902,3.0386,3.4238,0.81387,0.72439,1.682,1.3755,2.5502,1.8503,0.89525,0.47749,1.8176,0.78678,2.7944,0.78678,1.0581,0.002,2.1161-0.36898,3.1471-1.1639l-0.407-0.49378,0.37987,0.50463c0.16275-0.12475,0.3255-0.25231,0.46113-0.37983,0.13575-0.13836,0.2985-0.293,0.46125-0.44492v-0.005-0.009c0.46125-0.48834,0.841-1.0472,1.1666-1.6549v-0.002c0.89525-1.8123,1.1938-3.9936,1.1938-6.0392,0-0.90615-0.0537-1.7879-0.16275-2.5964-0.055-0.57245-0.35275-1.2046-0.78687-1.9724-0.65113-1.1286-1.6006-2.4607-2.6859-3.5432-0.5155-0.5399-1.0852-1.0174-1.6278-1.3728-0.59687-0.3554-1.1666-0.60228-1.7906-0.605-0.407-0.002-0.841,0.12752-1.1938,0.40424l-0.0275,0.019-0.217,0.21704,0.841,0.91157,0.217-0.20076-0.434-0.45579,0.37975,0.49377c0.16275-0.10038,0.27137-0.13565,0.43412-0.14108,0.35263-0.0113,0.9495,0.24418,1.5735,0.74066,0.94963,0.73252,1.9805,1.929,2.7674,3.063,0.37975,0.56703,0.70537,1.1178,0.9495,1.5844,0.217,0.4585,0.35275,0.8546,0.37987,0.99025,0.0812,0.7705,0.10875,1.6088,0.10875,2.4634,0.0275,1.929-0.27137,3.942-1.031,5.4749v-0.002c-0.27125,0.51547-0.59687,0.9794-0.9495,1.3674l0.434,0.42866-0.434-0.44222c-0.13562,0.15192-0.27137,0.293-0.407,0.40424-0.13562,0.12475-0.24412,0.21975-0.35262,0.29572v0.009,0.002c-0.86825,0.65384-1.6279,0.89801-2.3875,0.90073-0.70538,0-1.4379-0.22519-2.1976-0.63757-0.75962-0.40695-1.5464-1.0011-2.3331-1.6902-1.1395-0.98482-2.1161-2.0158-2.7672-3.1308-0.67825-1.1178-1.0852-2.3142-1.0852-3.7006,0-0.59144,0.0812-1.2209,0.24412-1.891,0.21713-0.9794,0.59688-1.7174,1.1395-2.3902v-0.0136l0.13563-0.1872-0.5155-0.3527,0.48837,0.38796c0.35275-0.45036,0.78675-0.8763,1.2751-1.3267v-0.005c0.35275-0.31743,0.67825-0.53448,1.031-0.73253l-0.2985-0.54802,0.2985,0.55345c1.0038-0.54532,2.2246-0.69182,3.4726-1.4352l-0.67825-1.0635"/>
   <path id="path980" fill="#231f20" d="m440.63,548.54c-0.24413-0.0136-0.48838-0.0136-0.67825-0.0136-1.3565,0.002-2.6045,0.15194-3.6626,0.79764-1.058,0.6457-1.8178,1.7906-2.1432,3.4672-0.10875,0.49106-0.16275,1.0147-0.16275,1.5518,0,1.3457,0.3255,2.77,0.9495,3.9746,0.624,1.1964,1.6279,2.2003,3.0115,2.496,0.59688,0.12475,1.1666,0.18992,1.682,0.18992,1.3294,0.0113,2.4418-0.48293,3.1471-1.3891,0.70537-0.90072,1.031-2.1026,1.1395-3.5242,0.0275-0.26588,0.0275-0.52904,0.0275-0.78949,0-2.8731-1.3565-5.3609-3.6626-6.6795l-0.624,1.0879c1.8991,1.0879,3.0386,3.1064,3.0386,5.5915,0,0.22519,0,0.45579-0.0275,0.6864-0.10875,1.2941-0.407,2.2627-0.86813,2.8541-0.48837,0.5833-1.1124,0.90072-2.1705,0.91157-0.434,0-0.89525-0.0515-1.4108-0.16277-0.92237-0.19534-1.6549-0.86818-2.1704-1.8557-0.54263-0.9794-0.81388-2.2382-0.81388-3.3913,0-0.46121,0.0538-0.90073,0.13563-1.3022,0.29837-1.465,0.841-2.2003,1.5735-2.6533,0.7325-0.45036,1.7635-0.61314,3.0115-0.61314,0.18987,0,0.407,0.002,0.59687,0.0136l0.0813-1.248"/>
   <path id="path982" fill="#231f20" d="m449.99,567.49c-0.24412,0.68368-0.46112,1.305-0.70537,1.9045-0.67825,1.8042-1.2209,3.3886-1.2209,5.2063,0,1.0255,0.16288,2.1107,0.56975,3.3289,0.54263,1.5519,1.3294,3.3533,2.496,4.8672,1.1666,1.5084,2.7401,2.7537,4.775,3.0277,0.27125,0.0352,0.54251,0.0542,0.81388,0.0542,0.3255,0,0.67825-0.0299,1.0038-0.0841l0.0275-0.003,0.0537-0.019-0.13575-0.60771,0.10875,0.61856c1.1122-0.17906,2.1432-0.62942,3.0928-1.2453l-0.0275,0.002c1.6279-1.0472,2.9301-2.553,3.6355-4.075,0.81387-1.8204,0.65112-3.9474,0.89525-5.5807,0.13562-0.93056,0.32562-1.7228,0.32562-2.5665,0.0275-0.91701-0.27137-1.872-1.031-2.8677v-0.002c-0.92237-1.191-2.4146-2.3956-4.1509-3.3424-1.7364-0.93599-3.6626-1.6088-5.4532-1.6115-1.4108-0.005-2.7672,0.42865-3.7168,1.5193l0.46112,0.41509-0.46112-0.42865c-0.27138,0.30113-0.48838,0.64027-0.7055,0.99567l1.1124,0.59144c0.16275-0.29843,0.32563-0.53175,0.5155-0.7298v-0.005-0.009c0.67825-0.76779,1.6279-1.0961,2.7944-1.1015,1.4651-0.002,3.2556,0.59144,4.8564,1.4623,1.6006,0.86547,2.9842,2.0131,3.7711,3.0033v-0.002c0.624,0.84375,0.75962,1.4216,0.75962,2.1134,0,0.64027-0.16275,1.3972-0.2985,2.3793-0.27125,1.8394-0.13562,3.8661-0.81387,5.2416-0.59688,1.2778-1.7364,2.6479-3.1471,3.5514v0.002c-0.81387,0.53446-1.7091,0.91157-2.6316,1.0554l-0.0275,0.005-0.0538,0.0162,0.13562,0.60772-0.10875-0.61857c-0.24412,0.0461-0.5155,0.0679-0.78675,0.0679-0.217,0-0.43412-0.0136-0.65112-0.0434-1.6008-0.21163-2.8759-1.2019-3.9339-2.553-1.0581-1.3511-1.8178-3.0413-2.3061-4.5009-0.37975-1.1069-0.5155-2.0483-0.5155-2.9301,0-1.5546,0.46125-2.9735,1.1395-4.7641,0.21712-0.59958,0.46125-1.2263,0.70537-1.9181l-1.1666-0.42867"/>
   <path id="path984" fill="#231f20" d="m453.03,568.64c-0.27125,0.14379-0.46125,0.33642-0.624,0.5426l0.94962,0.80034c0.10875-0.12212,0.18988-0.20347,0.29838-0.25774l-0.624-1.0852"/>
   <path id="path986" fill="#231f20" d="m453.6,568.2c-0.24413,0.14379-0.46125,0.312-0.67825,0.49649v0.0163l-0.0538,0.038,0.46125,0.43137-0.43413-0.45307c-1.3836,1.3348-2.0076,3.5622-2.0348,5.5264,0,0.93327,0.16275,1.8096,0.5155,2.534,0.48825,0.96041,1.3294,2.0944,2.3874,3.0277,1.031,0.92242,2.279,1.6766,3.6626,1.6875,0.624,0,1.248-0.17907,1.8449-0.56432,0.92237-0.60771,1.5735-1.6577,2.0348-2.846,0.48837-1.1937,0.78675-2.5367,0.78675-3.7738,0-0.73524-0.10875-1.4352-0.35263-2.051-0.19-0.51276-0.56975-0.96584-1.0581-1.4189-0.7325-0.67284-1.7092-1.3158-2.7401-1.8069-1.0852-0.48835-2.1976-0.82747-3.2285-0.8329-0.59687,0-1.1666,0.11125-1.6821,0.40424l0.65112,1.0798c0.24425-0.14922,0.59688-0.23333,1.031-0.23333,1.0309-0.005,2.4418,0.50191,3.6082,1.1964,0.59688,0.34455,1.1124,0.73523,1.5194,1.1069,0.37975,0.36898,0.67825,0.73794,0.7325,0.95228,0.16275,0.42051,0.24412,0.9794,0.24412,1.6034,0,1.0472-0.24412,2.2681-0.65112,3.3099-0.40688,1.0445-1.0038,1.9018-1.5735,2.2654v0.002c-0.407,0.25231-0.78675,0.35269-1.1666,0.3554-0.86812,0.0112-1.9262-0.54531-2.8215-1.3701-0.9225-0.8139-1.7092-1.8638-2.1162-2.6615-0.24412-0.46392-0.37975-1.1747-0.37975-1.9669,0-1.6766,0.65113-3.6843,1.6549-4.623l0.0275-0.0112,0.0275-0.0352-0.46113-0.42865,0.434,0.4585c0.16288-0.14378,0.27138-0.24417,0.43413-0.33098l-0.62395-1.0849"/>
   <path id="path988" fill="#231f20" d="m443.97,563.93c0.94962,0.22517,2.089,1.0364,2.9572,2.0944,0.86812,1.05,1.4921,2.3359,1.5735,3.3913l1.248-0.11125c-0.13563-1.4189-0.86813-2.8704-1.872-4.0804-1.0038-1.2019-2.2518-2.1704-3.6082-2.5068l-0.2985,1.2127"/>
   <path id="path990" fill="#231f20" d="m445.65,561.66,0.27125-0.0136c0.54263,0.003,1.031,0.17906,1.5465,0.50191,0.75963,0.48022,1.465,1.2995,2.1161,2.1731,0.65112,0.87359,1.2209,1.7879,1.7091,2.4797l0.055,0.038,0.0538,0.057,0.86813-0.88445-0.0275-0.0271-0.43413,0.44221,0.48838-0.3771c-0.59688-0.82205-1.4108-2.1976-2.4418-3.3859-0.48838-0.59415-1.058-1.1503-1.7091-1.5681-0.65112-0.41781-1.4109-0.69996-2.2247-0.69725-0.13563,0-0.27125,0.005-0.40688,0.019l0.13563,1.2426"/>
   <path id="path992" fill="#231f20" d="m456.99,585.15,0.10875,0.2496,0.56975-0.23332-0.56975,0.22518c0.24425,0.64027,0.624,1.2534,1.0039,1.853,0.35275,0.59686,0.70538,1.1774,0.89525,1.6631l0.56976-0.21703-0.56976,0.21161c0.24425,0.7081,0.32563,1.4054,0.56976,2.1569,0.27137,0.7515,0.75962,1.5247,1.7364,2.1243,0.54262,0.34184,1.1124,0.41509,1.5735,0.41509,0.37987-0.002,0.7055-0.0461,0.97675-0.0434l0.16275,0.009,0.0812-0.61857-0.0812,0.61857c0.13562,0.0162,0.24425,0.057,0.2985,0.095v0.009l0.0275,0.002s0.0813,0.10575,0.13562,0.30115c0.0813,0.19534,0.13563,0.46664,0.13563,0.74608v0.005c0.0275,0.16007,0.0275,0.32829,0.0275,0.49649,0,0.50191-0.0538,0.99568-0.13563,1.229v-0.0408,0.0352c-0.27125,0.93871-0.97675,1.6984-1.9262,2.2491-0.92237,0.54802-2.0619,0.86816-3.0386,0.94141l-0.0538,0.003c-0.217,0-0.56975-0.0733-0.97663-0.21975-0.56975-0.21704-1.248-0.59415-1.7092-1.0011-0.24412-0.20078-0.43412-0.41239-0.54262-0.59416-0.13563-0.18719-0.16275-0.33642-0.16275-0.42865,0-0.0895,0.0275-0.15465,0.10875-0.27402,0.10875-0.11662,0.32562-0.27402,0.65112-0.42595l-0.3255-1.191c-1.3838,0.22247-2.496,1.248-3.5541,2.3142-1.0581,1.0771-2.0619,2.2491-2.9571,2.8785v-0.002c-0.13575,0.0786-0.24425,0.15735-0.35275,0.21703l0.59688,1.0961c0.16275-0.0895,0.3255-0.1872,0.46125-0.28215v-0.002c1.1122-0.78407,2.1161-1.9914,3.147-3.0277,1.0039-1.0445,2.0078-1.853,2.8488-1.9534l-0.10875-0.62128-0.24425-0.57245c-0.46113,0.20347-0.841,0.44765-1.1122,0.75965-0.27138,0.30928-0.407,0.70538-0.407,1.0879,0,0.54803,0.24412,1.012,0.56975,1.4108,0.48837,0.59686,1.1938,1.0879,1.9262,1.4623,0.7325,0.36355,1.465,0.61315,2.1432,0.61857l0.16275-0.005c1.1666-0.0895,2.4418-0.45036,3.5541-1.1123,1.1395-0.65657,2.1161-1.636,2.496-2.968v-0.005c0.13563-0.41238,0.18988-0.96583,0.18988-1.5736,0-0.19805,0-0.39882-0.0275-0.60229v0.002c-0.0275-0.35541-0.0813-0.71081-0.18988-1.0445-0.10875-0.33099-0.27137-0.65928-0.59687-0.90887l-0.37988,0.5019,0.37988-0.49105c-0.2985-0.23332-0.624-0.32013-0.9225-0.35541l-0.29838-0.0163c-0.37987,0.002-0.70537,0.0434-0.97675,0.0434-0.35262-0.002-0.624-0.0489-0.92237-0.21977-0.7325-0.48562-0.97675-0.90886-1.1938-1.4732-0.18987-0.5643-0.27125-1.305-0.59688-2.1731v-0.005c-0.24412-0.6647-0.624-1.2887-1.0037-1.891-0.37988-0.59687-0.7325-1.172-0.89538-1.6414l-0.10875-0.25774-1.1666,0.46393"/>
   <path id="path994" fill="#231f20" d="m459.86,584.02,0.0537,0.15193,0.59688-0.15193-0.624,0.114c0.29837,1.4732,0.97662,3.0928,1.7091,4.6772,0.7055,1.579,1.4651,3.1227,1.8991,4.3408l0.0538,0.114,1.1666-0.44223-0.0537-0.10037-0.56975,0.22247,0.56975-0.2089c-0.46125-1.3321-1.2209-2.884-1.9262-4.4439-0.7325-1.5573-1.3836-3.1254-1.6006-4.3897v-0.019l-0.0538-0.16821-1.2209,0.30386"/>
   <path id="path996" fill="#231f20" d="m436.31,547.9,0-0.24689,0-0.24689,0-0.0271c-0.10875-0.71081-0.46113-1.408-0.841-2.108-0.407-0.69454-0.86813-1.3728-1.1666-1.891v-0.0162,0.019c-0.40687-0.71624-0.92237-1.4135-1.4921-2.0131-0.16275-0.17363-0.32563-0.34727-0.48838-0.51004-0.78674-0.70539-1.6006-1.2534-2.4689-1.4813-0.56975-0.14923-1.1394-0.21977-1.7091-0.21977-1.7092,0-3.3099,0.62943-4.6665,1.5898-1.3565,0.96041-2.4688,2.2572-3.2014,3.6599-0.62388,1.1992-1.0038,2.5584-1.0038,3.9529,0,0.28758,0.0275,0.57516,0.0538,0.86816v-0.005c0.10875,0.7488,0.46125,1.3619,0.75963,1.929,0.32562,0.56431,0.624,1.0825,0.65112,1.4813v0.005l0.0275,0.16821c0,0.1465-0.0275,0.28758-0.10875,0.45308l1.1124,0.56972c0.16275-0.3337,0.24412-0.6891,0.24412-1.0228,0-0.12212-0.0275-0.24146-0.0275-0.35812v0.0325-0.0244c-0.10875-0.74065-0.48837-1.3538-0.81387-1.9181-0.29851-0.55888-0.56976-1.0716-0.59688-1.4515v-0.002c-0.0275-0.24147-0.0275-0.48293-0.0275-0.72438,0-1.172,0.29838-2.3414,0.841-3.3777,0.624-1.2154,1.6279-2.3766,2.8216-3.2149,1.1665-0.84104,2.5502-1.3619,3.9339-1.3592,0.46113,0,0.92238,0.057,1.3836,0.17633,0.56975,0.14652,1.2751,0.57517,1.9262,1.191,0.16275,0.14107,0.3255,0.293,0.46112,0.44222v0.003c0.48838,0.52362,0.94963,1.153,1.3024,1.7824l0.0537,0.057-0.0537-0.0515c0.35262,0.56703,0.78675,1.2344,1.1665,1.8828,0.35275,0.64028,0.65112,1.2806,0.67825,1.6441l0.624-0.0786-0.624,0.0515v0.25501l1.248,0.13566"/>
   <path id="path998" fill="#231f20" d="m431.81,542.7,0.0137,0,0-1.2505-0.0137,0,0,1.2505z"/>
   <path id="path1000" fill="#231f20" d="m432.27,541.26-0.13562,0-0.56975,0.24146,0.5155,1.1449,0.434-0.18991-0.27125-0.56973,0,0.62399,0.0275,0,0-1.2507"/>
   <path id="path1002" fill="#231f20" d="m433.71,550.02,0-0.29028c-0.10875-0.41782-0.29838-0.81934-0.56975-1.3375-0.40688-0.76507-0.9495-1.7065-1.3565-2.6262-0.434-0.91701-0.75963-1.8259-0.7325-2.3902,0-0.33643,0.0538-0.49107,0.18987-0.60502,0.13575-0.11662,0.43413-0.25231,1.0039-0.25231v-1.2507c-0.75963,0-1.3836,0.16821-1.8449,0.57245-0.46125,0.40695-0.624,0.99296-0.624,1.5356,0,0.62941,0.18988,1.2724,0.43413,1.9317,0.37975,0.98484,0.92237,1.9968,1.3836,2.8595,0.24413,0.43136,0.46125,0.82203,0.59688,1.1422,0.16275,0.31471,0.27125,0.57788,0.27125,0.64841l0.624-0.11387h-0.624v0.17634h1.248"/>
   <path id="path1004" fill="#231f20" d="m437.32,568.64c-0.67825,0.43136-1.1666,0.92243-1.7092,1.3511-0.5155,0.43407-1.058,0.81119-1.7091,1.0744-0.78688,0.31742-1.438,0.43137-2.0891,0.79764-0.3255,0.18448-0.624,0.45036-0.86812,0.80576-0.217,0.35541-0.407,0.78677-0.54263,1.3294-0.13562,0.4585-0.18987,0.94683-0.18987,1.4406,0,0.61315,0.0812,1.2263,0.217,1.7852,0.13562,0.55888,0.35275,1.0608,0.624,1.4596l0.5155-0.3744-0.5155,0.36627c0.2985,0.38253,0.70537,0.7298,1.1666,1.0174,0.48837,0.28215,1.031,0.50463,1.6006,0.51005,0.2985,0,0.59687-0.0651,0.89538-0.24146,0.27125-0.17635,0.48837-0.4585,0.624-0.78677l-1.1666-0.45037c-0.0538,0.12475-0.10875,0.15735-0.13562,0.18178l-0.21713,0.0461c-0.217,0.005-0.59675-0.12212-0.9495-0.33098-0.35275-0.20348-0.67825-0.49105-0.78675-0.67554l-0.0275-0.009c-0.13575-0.1872-0.2985-0.56703-0.407-1.0174-0.10875-0.45307-0.18987-0.9794-0.18987-1.4813,0-0.40424,0.0538-0.79491,0.13562-1.115,0.10875-0.45579,0.24413-0.75694,0.407-0.95499,0.18988-0.29572,0.37975-0.42324,0.78675-0.5833,0.35263-0.15192,0.89525-0.29301,1.5735-0.55617,0.84113-0.3337,1.4651-0.80848,2.0348-1.2724,0.56975-0.46665,1.0581-0.91702,1.6008-1.2724l-0.67825-1.0445"/>
   <path id="path1006" fill="#231f20" d="m418.08,574.36c-0.54263,0-1.248-0.14379-2.0076-0.29842-0.78675-0.15465-1.6008-0.32014-2.3875-0.32014-0.5155,0-1.0038,0.0651-1.465,0.25502v-0.002c-0.9495,0.39882-1.6006,1.2805-2.1432,2.2192-0.5155,0.94957-0.92249,1.9859-1.1666,2.7646-0.24425,0.82476-0.407,2.2111-0.407,3.4862,0,0.69725,0.0537,1.3457,0.19,1.8747v0.005c0.0812,0.27943,0.24412,0.63485,0.46112,1.0581,0.2985,0.63214,0.7325,1.3891,1.1395,2.051,0.217,0.3337,0.407,0.64299,0.624,0.90615s0.407,0.4802,0.65113,0.64841c0.29837,0.19805,0.65112,0.30387,1.1124,0.42324,1.2751,0.32828,3.2285,0.55616,4.178,0.56159l0.18988-0.005c0.78687-0.0489,1.6279-0.28215,2.496-0.605,0.84112-0.32828,1.6279-0.73795,2.1976-1.191,0.70538-0.53446,1.1395-1.2941,1.3836-2.1243,0.29837-0.83019,0.37975-1.7499,0.37975-2.6778,0-2.0782-0.51538-4.197-1.1936-5.5047v0.005c-0.43412-0.84646-0.94962-1.6414-1.6008-2.2898-0.65112-0.64842-1.465-1.1449-2.4689-1.3511l-0.0538-0.0113h-0.0812v0.624l0.16275-0.605c-0.18988-0.0461-0.37975-0.0787-0.56975-0.0923l-0.0812,1.2453c0.10875,0.0112,0.21712,0.0271,0.32562,0.057l0.0813,0.019h0.0812v-0.624l-0.10875,0.61044c0.7325,0.15735,1.3294,0.50461,1.8449,1.0174,0.5155,0.51005,0.97662,1.191,1.3565,1.9724v0.002c0.56975,1.0391,1.0852,3.0684,1.0581,4.9241,0,0.83018-0.0813,1.6305-0.2985,2.2952-0.217,0.6674-0.54262,1.1856-0.97662,1.5247-0.43413,0.3337-1.1395,0.71895-1.8991,1.0038-0.75975,0.293-1.5465,0.49647-2.0891,0.52361l-0.13563,0.005c-0.5155,0-1.5735-0.0976-2.5502-0.25774-0.48837-0.076-0.9495-0.16821-1.3294-0.26587-0.37975-0.0923-0.67825-0.21433-0.70538-0.25231-0.0813-0.0299-0.3255-0.27944-0.54262-0.61587-0.37975-0.50461-0.78675-1.2154-1.1395-1.8693-0.35263-0.6457-0.62388-1.267-0.70538-1.5003v0.005c-0.0813-0.312-0.13562-0.89258-0.13562-1.522,0-1.1476,0.16275-2.5204,0.35275-3.1173,0.24412-0.7081,0.59687-1.6848,1.058-2.5177,0.46125-0.84104,1.0852-1.5084,1.5194-1.6739v-0.002c0.27125-0.1085,0.59688-0.16007,1.0038-0.16007,0.624,0,1.3565,0.14107,2.1162,0.29301,0.75963,0.15464,1.5464,0.31742,2.2789,0.32556v-1.248"/>
   <path id="path1008" fill="#231f20" d="m434.96,543.25-0.0275-0.16008c0-0.37711,0.16275-0.9387,0.46125-1.5356,0.43412-0.898,1.1395-1.8828,1.8991-2.6398,0.37975-0.37983,0.78675-0.70268,1.1395-0.936,0.35263-0.23333,0.67825-0.36627,0.89525-0.3961v-0.002l0.13563-0.0136,0.18987,0.0489,0.2985-0.53718-0.32562,0.5209,0.055,0.0515v0.002l0.0275,0.009c11.042,6.6388,17.879,13.21,21.921,19.539,4.0425,6.3322,5.3719,12.428,5.3719,18.218,0,6.2942-1.5736,12.222-2.903,17.594l-0.0538,0.1872,0.59687,1.6794,0.16275,0.33641,0.21713,0.624,0.624-0.28487c0.0275-0.0217,4.3136-2.0348,8.7359-6.8043,4.3951-4.7668,8.8988-12.317,9.3329-23.31,0.0275-0.65112,0.0275-1.2833,0.0275-1.9045,0-10.163-3.2285-16.433-6.5112-20.125-3.3099-3.6924-6.5928-4.8129-6.6741-4.8373l-0.18987,0.59143,0.217-0.58601c-0.0275-0.005-12.453-4.6094-22.22-4.6176-3.0929,0.002-5.9415,0.45307-8.0849,1.7445l0.624,1.0689c1.8449-1.1069,4.4765-1.5681,7.4609-1.5627,4.6935-0.005,10.174,1.1286,14.433,2.2681,2.1434,0.56702,3.9881,1.1368,5.2904,1.5627,0.65112,0.21432,1.1666,0.39339,1.5194,0.51546,0.35263,0.12475,0.54263,0.19263,0.54263,0.19263l0.0275,0.005v0.002l0.0275,0.009c0.29837,0.11125,3.3641,1.2914,6.3756,4.8075,2.9842,3.5215,5.9144,9.3708,5.9144,18.961,0,0.605-0.0275,1.2236-0.0275,1.8557-0.43413,10.668-4.775,17.906-9.0072,22.51-2.1161,2.3006-4.2324,3.9366-5.7788,4.9947-0.78675,0.52904-1.4379,0.917-1.8991,1.1666-0.217,0.12475-0.37987,0.21705-0.48837,0.27674l-0.16275,0.0651-0.0275,0.019,0.27125,0.56703,0.56975-0.2279-0.10875-0.32285-0.59688,0.22518,0.59688-0.21433-0.54263-1.5003-0.59687,0.21432,0.59687,0.14923c1.3565-5.3582,2.9572-11.395,2.9572-17.895,0-5.9795-1.3836-12.355-5.5618-18.891-4.2051-6.5384-11.178-13.229-22.328-19.935l-0.32563,0.53447,0.35275-0.52362-0.0813-0.0489-0.0275-0.005v-0.009c-0.24412-0.14923-0.5425-0.22248-0.81387-0.22248-0.13563,0-0.24413,0.0113-0.35263,0.0325l0.10875,0.61314-0.0812-0.61585c-0.65112,0.10313-1.248,0.44765-1.8449,0.90344-0.89538,0.69182-1.7635,1.6712-2.4418,2.7076-0.65113,1.0418-1.1395,2.1189-1.1666,3.1308l0.0275,0.31472,1.248-0.15464"/>
   <path id="path1010" fill="#231f20" d="m469.3,588.81c-0.0275-0.21976-0.0813-0.48564-0.0813-0.78135,0-0.8329,0.21713-1.9073,0.46125-3.0088,0.217-1.1069,0.46125-2.2382,0.46125-3.2882v-0.0434l-1.248-0.0352v0.0786c0,0.84918-0.21712,1.929-0.43412,3.0332-0.24412,1.1042-0.46125,2.2301-0.48838,3.2638,0,0.37169,0.0275,0.73251,0.13575,1.0798l1.1936-0.29842"/>
   <path id="path1012" fill="#231f20" d="m466.73,560.76c2.1434,1.1368,3.9611,2.6479,5.399,4.5714l0.5155-0.37438-0.055-0.62129c-0.67825,0.0596-1.465,0.005-2.2789,0.11662l-0.407,0.0542-0.10875,0.38797c-0.0537,0.24416-0.0812,0.48833-0.0812,0.73522,0,0.35541,0.0275,0.69454,0.13563,1.0092l0.16275,0.38796,0.407,0.019c1.0039,0.0515,1.6008,0.3337,2.1975,0.78135,0.56975,0.45037,1.1395,1.1042,1.9262,1.8069l0.84112-0.92785c-0.70537-0.63485-1.2751-1.305-2.0076-1.872-0.7325-0.56702-1.655-0.99026-2.903-1.0391l-0.0275,0.6267,0.56975-0.21975c-0.0275-0.0869-0.0537-0.34455-0.0537-0.57245,0-0.15735,0.0275-0.30928,0.0275-0.38525l-0.59688-0.17363,0.0812,0.61857c0.62401-0.0895,1.4108-0.0434,2.2248-0.1085l1.1394-0.095-0.70538-0.90344c-1.5464-2.0782-3.5269-3.7141-5.8059-4.9268l-0.59687,1.1042"/>
   <path id="path1014" fill="#231f20" d="m460.6,552.59c0.841,0.48564,1.8449,1.2751,2.8758,1.9561,1.0039,0.67282,2.0347,1.2805,3.12,1.2995,0.40701,0,0.81388-0.10038,1.1938-0.32828l-0.65112-1.0608c-0.16275,0.095-0.3255,0.13836-0.54263,0.13836-0.54262,0.0162-1.465-0.43678-2.4417-1.0879-0.9495-0.64298-1.9805-1.4406-2.93-1.9995l-0.62401,1.0825"/>
   <path id="path1016" fill="#231f20" d="m460.89,552.05,0.16287-0.60773c-0.2985-0.0679-0.56975-0.14921-0.75975-0.22788l-0.217-0.1085-0.0538-0.038v-0.009l-0.48837,0.42865-0.0813,0.61857c0.2985,0.0408,0.67825,0.20076,1.1124,0.47478l0.3255-0.53175,0.16288-0.60773-0.16288,0.60773,0.35275-0.53175c-0.54262-0.32285-1.0581-0.56432-1.6008-0.64842l-1.7905-0.2686,1.248,1.3158c0.217,0.22246,0.434,0.33641,0.7325,0.45307,0.27125,0.114,0.56975,0.2089,0.92238,0.29029l0.48837-1.1422-0.35275,0.53175"/>
   <path id="path1018" fill="#231f20" d="m452.95,544.02c0.37988,0.7298,1.0039,1.3158,1.7635,1.8476,1.1395,0.79491,2.5502,1.4623,3.9068,2.0538,1.3565,0.58873,2.6588,1.1069,3.4184,1.5302,0.43412,0.23603,1.0852,0.51005,1.6279,0.83562,0.27125,0.16006,0.48825,0.32827,0.624,0.46935,0.13563,0.1465,0.13563,0.23331,0.13563,0.25773l-0.0537,0.14379c-0.0538,0.0869-0.19,0.21975-0.407,0.37169l0.0275-0.002c-0.0275,0.0113-0.13563,0.0651-0.3255,0.0976-0.16288,0.0299-0.43413,0.0489-0.67825,0.0489-0.59688,0.002-1.3566-0.0895-1.9262-0.23061l-0.2985,1.2182c0.70537,0.16278,1.4921,0.26316,2.2248,0.26316,0.3255,0,0.624-0.019,0.89525-0.0705,0.29837-0.0542,0.56975-0.13023,0.81387-0.30385,0.2985-0.21705,0.54263-0.43951,0.70538-0.69183,0.19-0.25231,0.27137-0.55075,0.27137-0.84375,0-0.46121-0.21712-0.83018-0.48837-1.1042-0.37988-0.4151-0.86813-0.7081-1.3565-0.96312-0.46125-0.2496-0.94963-0.45579-1.1938-0.59415v0.002c-1.1666-0.6457-3.0929-1.3457-4.8291-2.1813-0.89537-0.41781-1.7364-0.86273-2.3875-1.3294-0.65112-0.46664-1.1395-0.95498-1.3565-1.3891l-1.1124,0.56432"/>
   <path id="path1020" fill="#231f20" d="m446.68,539.05c0.7325,0.5209,1.4922,0.78677,2.2248,0.95226,0.75962,0.1655,1.465,0.24417,2.2246,0.38796,2.1976,0.41239,4.1239,1.8964,6.5384,2.694,3.3099,1.0662,6.4028,3.4374,10.092,4.1943l0.24412-1.2263c-3.3099-0.6457-6.3756-2.9735-9.9296-4.1564-2.1432-0.68098-4.1238-2.2193-6.7011-2.732-0.814-0.15463-1.5465-0.23331-2.1705-0.37981-0.65112-0.14922-1.248-0.3527-1.8178-0.75694l-0.70537,1.0228"/>
   <path id="path1022" fill="#231f20" d="m444.75,537.08c0.67825,0,1.3565-0.005,2.0076-0.005,1.655-0.002,3.1742,0.0434,4.6122,0.33913,1.4379,0.29301,2.7672,0.82476,4.0152,1.8177l0.78675-0.98211c-1.4379-1.1259-2.9844-1.739-4.5579-2.0619-1.5735-0.32285-3.2014-0.36354-4.8564-0.36354-0.67825,0-1.3565,0.005-2.0076,0.005v1.2507"/>
   <path id="path1024" fill="#231f20" d="m414.91,554.15-0.0538,0c-0.35263,0-2.4146-0.0814-4.4765-1.796-2.0619-1.7174-4.2051-5.1059-4.6121-11.992-0.18987-3.592-0.48837-7.081-0.48837-10.475,0-5.3121,0.70537-10.383,3.4728-15.358,2.7672-4.9784,7.6506-9.9052,16.088-14.843,11.259-6.5601,18.747-10.768,24.471-13.565,5.7245-2.7944,9.6855-4.1699,13.891-5.0978,3.9881-0.87901,6.5112-1.2453,8.2747-1.2426,2.0348,0.009,3.12,0.43137,4.6393,1.1883,2.8758,1.4216,6.5384,3.8118,11.937,4.0153,2.4689,0.10038,4.9649,0.96042,6.8369,1.8014,0.92238,0.42052,1.6821,0.83562,2.2246,1.1422,0.27137,0.15465,0.48837,0.28216,0.624,0.36897l0.16287,0.10038,0.0275,0.0353,0.0813,0.0489,0.0813,0.0271c0.0275,0.005,1.0852,0.34185,2.1975,0.34456,0.48837-0.002,1.0581-0.0651,1.5465-0.3527,0.24413-0.1465,0.46113-0.35811,0.624-0.63485,0.13563-0.27672,0.217-0.60229,0.217-0.94955,0-0.94956-0.48837-2.0836-1.5735-3.7304-1.1124-1.636-1.9534-2.6669-2.6589-3.3452-0.51538-0.50734-0.9495-0.81663-1.3565-1.0065-0.624-0.28215-1.1122-0.26316-1.3836-0.31741-0.13562-0.0271-0.24412-0.057-0.37975-0.13567-0.13575-0.0786-0.2985-0.21975-0.54263-0.47477-0.24425-0.2713-0.27137-0.43409-0.27137-0.50463l0.0537-0.1682c0.0813-0.12212,0.27137-0.30386,0.54263-0.46121,0.43412-0.24146,1.0039-0.4368,1.4651-0.5616,0.217-0.0624,0.40687-0.1085,0.5425-0.14107l0.19-0.0325,0.0537-0.009-0.10875-0.61858,0.0538,0.62129,25.72-2.9328,0.0537-0.0244c0.0275-0.009,0.78675-0.2713,1.5735-0.7298,0.37988-0.23061,0.78675-0.51005,1.1395-0.86002,0.29838-0.34456,0.624-0.79493,0.624-1.3674,0-0.31472-0.10875-0.64028-0.2985-0.92244-0.29837-0.42594-0.7325-0.77864-1.3565-1.1178-0.624-0.33913-1.465-0.66198-2.5502-0.97669l-0.0537-0.019-9.4684-0.84648-0.0538,0.002h-0.0813c-0.13563,0-0.434-0.009-0.624-0.0461l-0.10875-0.0244-0.0538-0.0163-0.0812,0.21433,0.16275-0.15464-0.0813-0.0598-0.0813,0.21433,0.16275-0.15464-0.3255,0.30115h0.43401c0-0.12213-0.0537-0.25231-0.10875-0.30115l-0.32551,0.30115h0.434-0.37975l0.35263,0.17091,0.0275-0.17091h-0.37975l0.35262,0.17091-0.18987-0.095,0.18987,0.12213v-0.0271l-0.18987-0.095,0.18987,0.12212v-0.005,0.005-0.005,0.005c0-0.0353,0.21713-0.2089,0.624-0.41781,1.2209-0.65655,4.1781-1.7933,10.282-3.6192l0.0538-0.0136,0.0275-0.019c0.0275-0.009,0.84112-0.39338,1.6821-0.93328,0.407-0.2713,0.841-0.57517,1.1938-0.917,0.16275-0.17092,0.3255-0.34998,0.46125-0.55889,0.13563-0.20619,0.217-0.45035,0.217-0.74065,0-0.31743-0.13562-0.65113-0.37987-0.86003-0.35263-0.32013-0.81388-0.4775-1.465-0.6023-0.624-0.11662-1.465-0.17905-2.5502-0.17905-0.65113,0-1.3565,0.019-2.1704,0.0651l-0.0538,0.002-11.748,3.1417,0.16288,0.6023-0.13575-0.60501s-0.0537,0.0163-0.18988,0.0461c-0.434,0.0895-1.3565,0.26316-1.9805,0.26316-0.24412,0.002-0.43412-0.0299-0.48837-0.0543l-0.0275-0.002-0.0275,0.0814,0.0537-0.0733-0.0275-0.009-0.0275,0.0814,0.0537-0.0732-0.18987,0.24146h0.2985l-0.10875-0.24146-0.18988,0.24146h0.2985-0.19l0.19,0.0352v-0.0352h-0.19l0.19,0.0352-0.0275-0.005,0.0275,0.0113v-0.005l-0.0275-0.005,0.0275,0.0112c0-0.0271,0.13563-0.27131,0.51538-0.6023,0.35275-0.3337,0.89537-0.77321,1.7092-1.3185l-0.35275-0.51548,0.27137,0.5616,9.4412-4.6203,0.055-0.0461c0-0.0112,0.51538-0.42865,1.058-0.99296,0.27137-0.28486,0.5155-0.60229,0.75962-0.94414,0.21713-0.34455,0.37988-0.70266,0.37988-1.1612,0-0.19534-0.0275-0.41509-0.16275-0.60771-0.16287-0.29573-0.46125-0.49107-0.75963-0.59687-0.32562-0.1085-0.67837-0.15193-1.1395-0.15193-0.75962,0-1.7635,0.13566-3.1742,0.45036-8.4646,1.9127-13.755,6.5492-13.809,6.5899l0.407,0.46665-0.29838-0.54533s-0.0813,0.0515-0.24425,0.13565c-0.24412,0.12475-0.65112,0.31471-1.0309,0.46665-0.37988,0.15193-0.78688,0.25774-0.94963,0.24959l-0.0275-0.002-0.0812,0.2496,0.18988-0.15464-0.10875-0.095-0.0813,0.2496,0.18987-0.15464-0.217,0.18992,0.27125-0.0895-0.0537-0.10038-0.217,0.18991,0.27125-0.0895-0.13562,0.0434h0.16275l-0.0275-0.0434-0.13563,0.0434h0.16275c-0.0275-0.005,0.0275-0.2496,0.27139-0.62671,0.18987-0.38254,0.56975-0.91157,1.1124-1.598,1.4921-1.8557,2.4145-2.9111,2.9842-3.4835,0.27139-0.28487,0.46126-0.45307,0.54263-0.52905l0.0813-0.0408v-0.002l-0.18988-0.4151v0.44494l0.18988-0.0299-0.18988-0.4151v0.44494-0.5643l-0.24425,0.49919,0.24425,0.0651v-0.5643l-0.24425,0.49918,0.27138-0.51005-0.54263,0.20349c0.0275,0.0895,0.10875,0.2306,0.27125,0.30656l0.27139-0.51005-0.54263,0.20349,0.48838-0.18991h-0.54263l0.0537,0.18991,0.48838-0.18991h-0.54263,0.48838l-0.46125-0.0624-0.0275,0.0624h0.48837l-0.46125-0.0624,1.1395,0.38525c0.0275-0.0136,0.16275-0.27131,0.29838-0.63214,0.16287-0.36355,0.32562-0.81662,0.32562-1.3158,0-0.28487-0.0537-0.6267-0.32562-0.92243-0.24413-0.29571-0.65113-0.42865-1.0309-0.42322-0.70537,0.0113-1.5194,0.30927-2.7945,0.99567-5.0461,2.713-7.1624,4.4114-7.1895,4.4358l0.37988,0.48563-0.24425-0.56974c0,0.002-3.4998,1.5627-7.2166,3.4184-1.8449,0.92786-3.744,1.9262-5.3175,2.846-0.78675,0.46123-1.4921,0.90073-2.0348,1.3104-0.56975,0.41238-1.0039,0.77322-1.3022,1.1693v-0.005c-0.37987,0.51818-0.67825,0.81932-0.86825,0.97397l-0.217,0.13565-0.0275,0.0136v0.0624-0.0624,0.0624-0.0624,0.15193l0.10875-0.10038-0.10875-0.0515v0.15193l0.10875-0.10038-0.0812,0.0679,0.10875-0.0325-0.0275-0.0352-0.0812,0.0679,0.10875-0.0325-0.16276-0.4802-0.5155,0.0543c-0.0538,0.019-52.416,5.6132-87.224,37.033l0.40701,0.46392-0.2985-0.53988c-0.0538,0.0271-2.3874,1.3864-4.7206,4.4087-2.3332,3.0196-4.6935,7.7158-4.6935,14.33,0,0.93056,0.0538,1.8964,0.16276,2.9002,0.10874,1.0337,0.13561,2.0782,0.13561,3.1308,0,6.9426-2.0348,14.11-4.0966,19.526-1.031,2.7049-2.0619,4.9784-2.8215,6.5682-0.37988,0.79764-0.70538,1.4243-0.9225,1.8503-0.21701,0.42595-0.35264,0.64299-0.35264,0.6457v0.009,0.0112l-0.0275,0.0325c-0.43412,0.78949-9.0886,15.923-46.501,28.4l0.18989,0.59145-0.18989-0.59417c-0.0537,0.0217-13.05,4.1672-21.731,14.748l0.94949,0.7922c4.2052-5.1168,9.4956-8.717,13.755-11.026,2.1161-1.1558,3.9881-1.9886,5.3175-2.5312,0.65112-0.27401,1.1938-0.47206,1.5464-0.60229,0.19-0.0651,0.32562-0.114,0.43412-0.1465l0.13563-0.0461c38.878-12.947,47.152-28.891,47.234-29.046l-0.56975-0.28758,0.54262,0.30656c0.0275-0.0461,8.3561-14.84,8.3561-29.2,0-1.0879-0.0537-2.1731-0.13563-3.2529-0.10874-0.96584-0.16275-1.891-0.16275-2.7781,0-6.3132,2.2246-10.714,4.4222-13.565,1.1122-1.4216,2.2246-2.4526,3.0385-3.1254,0.407-0.33371,0.73251-0.58058,0.97675-0.74066,0.13563-0.0786,0.21701-0.13836,0.27125-0.17635l0.0538-0.0408,0.0275-0.0112,0.0538-0.0299,0.055-0.0461c17.2-15.532,38.823-24.729,56.187-30.022,8.6545-2.6479,16.251-4.3246,21.677-5.3338,2.713-0.50733,4.8835-0.84917,6.3756-1.0608,0.73251-0.1085,1.3023-0.18178,1.7092-0.23062,0.37976-0.0489,0.56962-0.0679,0.56962-0.0679l-0.0538-0.624-0.59688,0.19534c0,0.0461,0.055,0.19534,0.21713,0.37711,0.13563,0.17907,0.43399,0.39882,0.841,0.39339,0.35275-0.002,0.67825-0.15192,1.0039-0.40966,0.3255-0.26045,0.70537-0.6457,1.1122-1.2209v-0.005c0.13575-0.18178,0.48837-0.51819,1.031-0.88717,1.8178-1.3158,5.426-3.1986,8.546-4.7261,1.5736-0.76508,3.0115-1.446,4.0696-1.9344,1.0851-0.48834,1.7362-0.78406,1.7362-0.78406l0.0813-0.0353,0.0537-0.0515,0.0813-0.0651c0.43401-0.33914,2.5501-1.8991,6.891-4.2459,1.1938-0.64841,1.9262-0.85189,2.2248-0.84104l0.10875,0.0136,0.0275-0.0489-0.0275,0.038v0.0113l0.0275-0.0489-0.0275,0.038,0.0538-0.0733-0.0813,0.0515,0.0275,0.0217,0.0538-0.0733-0.0813,0.0515,0.0275-0.0113-0.0275,0.009v0.002l0.0275-0.0112-0.0275,0.009v0.11663c0.0275,0.19533-0.0813,0.56431-0.19,0.8519-0.0813,0.14378-0.10875,0.2713-0.16275,0.36082l-0.0537,0.10313-0.0275,0.0299,0.54263,0.30115,0.624,0.0841v-0.10575c0-0.0733,0-0.19534-0.0813-0.37169l-0.27138-0.23875-0.3255-0.076c-0.16275,0.002-0.27136,0.0515-0.35275,0.095-0.32549,0.1655-0.624,0.42866-1.2209,1.0825-0.624,0.64841-1.4921,1.6766-2.8215,3.3153-0.56975,0.71895-0.97663,1.2887-1.2209,1.7608-0.27125,0.47478-0.434,0.83562-0.434,1.2453-0.0275,0.27672,0.10875,0.624,0.37975,0.80305,0.24413,0.18177,0.48838,0.20891,0.70538,0.21162,0.32562-0.002,0.624-0.0786,0.94962-0.17363,0.92238-0.293,1.872-0.82748,1.8991-0.83562l0.0275-0.0325,0.0538-0.0461,0.0537-0.0434c0.56975-0.47206,5.5616-4.5416,13.212-6.2644,1.3294-0.30114,2.279-0.42051,2.903-0.42051,0.48838-0.002,0.75963,0.0786,0.81388,0.12475l0.0275,0.0163,0.0537-0.0489-0.0537,0.0244v0.0244l0.0537-0.0489-0.0537,0.0244,0.0537-0.0244-0.0812,0.0112,0.0275,0.0136,0.0537-0.0244-0.0812,0.0112v0.005c0.0275,0.038-0.0275,0.2496-0.18988,0.48835-0.24425,0.36355-0.65112,0.7922-0.94962,1.1096-0.16275,0.16008-0.3255,0.29844-0.434,0.39068l-0.13575,0.1085-0.0275,0.0352,0.37987,0.48292-0.27137-0.5616-9.4141,4.6094-0.0275,0.0244c-0.94962,0.64841-1.6008,1.1639-2.0348,1.598-0.21712,0.21975-0.37987,0.4178-0.5155,0.62128-0.10875,0.20347-0.217,0.42052-0.217,0.69182,0,0.21975,0.10875,0.46122,0.24413,0.61858,0.217,0.23874,0.46125,0.31742,0.67825,0.37167,0.217,0.0515,0.46125,0.0679,0.70537,0.0679,1.0852-0.005,2.4418-0.34183,2.4689-0.34726l11.666-3.1281-0.16275-0.60501,0.0537,0.62671c0.78675-0.0434,1.4921-0.0651,2.089-0.0651,1.3836-0.002,2.279,0.114,2.7672,0.26587,0.24425,0.0733,0.35275,0.15464,0.407,0.18449v0.009l0.0813-0.0651h-0.10875l0.0275,0.0651,0.0813-0.0651h-0.10875,0.0538l-0.0538-0.009v0.009h0.0538l-0.0538-0.009-0.0812,0.15464c-0.21713,0.33642-0.94963,0.86275-1.5736,1.2317-0.3255,0.18991-0.624,0.3527-0.81387,0.46665l-0.27125,0.13023-0.0812,0.0461,0.24412,0.5616-0.16275-0.59687c-4.6392,1.3918-7.488,2.382-9.1972,3.0983-0.86812,0.36082-1.4379,0.6457-1.8176,0.90344-0.19,0.13293-0.35275,0.25231-0.48838,0.40152-0.13562,0.1465-0.27137,0.34184-0.27137,0.63214,0,0.1872,0.0813,0.3744,0.19,0.49376,0.16275,0.21163,0.35262,0.27945,0.48837,0.33643,0.46113,0.1465,0.92238,0.14107,1.1665,0.14378h0.13575l-0.0275-0.62671-0.0537,0.624,9.36,0.83833,0.0538-0.62129-0.16275,0.59957c1.3836,0.39612,2.2789,0.80307,2.7672,1.1476,0.217,0.16821,0.37988,0.32285,0.43413,0.43408,0.0812,0.11125,0.0812,0.17635,0.0812,0.23604,0.0275,0.0976-0.0537,0.27944-0.27138,0.5019-0.29837,0.3337-0.86812,0.67826-1.3565,0.91158-0.24412,0.11662-0.46112,0.20891-0.59687,0.27131l-0.18988,0.0705-0.0537,0.0244,0.18988,0.58872-0.0538-0.62127-25.665,2.9274v0.002c-0.0275,0.005-0.89525,0.15192-1.7905,0.4992-0.46125,0.17362-0.94963,0.3961-1.3294,0.71352-0.21712,0.15735-0.37987,0.34455-0.54262,0.57788-0.13563,0.2306-0.21713,0.51276-0.21713,0.81661,0,0.47479,0.21713,0.93058,0.59688,1.3402,0.5155,0.58059,1.0039,0.86545,1.4651,0.97126,0.35263,0.0786,0.59688,0.0786,0.78675,0.11938,0.3255,0.0624,0.624,0.15192,1.248,0.70267,0.624,0.54803,1.4921,1.5573,2.6859,3.3533,1.0581,1.541,1.3836,2.553,1.3836,3.0277,0,0.17362-0.0275,0.2713-0.0537,0.34184-0.0813,0.095-0.16275,0.17092-0.35275,0.24146-0.18987,0.0705-0.434,0.10575-0.7325,0.10312-0.434,0.002-0.89525-0.0705-1.248-0.14378-0.16275-0.0353-0.3255-0.0733-0.434-0.10038l-0.10875-0.0325-0.0275-0.0113-0.19,0.59686,0.35275-0.5209c-0.0537-0.019-5.0734-3.4157-10.554-3.6544-4.9919-0.19262-8.4375-2.4064-11.395-3.885-1.5465-0.7922-2.9844-1.3294-5.209-1.3212-1.9262,0-4.5036,0.38796-8.5461,1.2724-4.3136,0.94685-8.3831,2.3739-14.162,5.1982-5.7788,2.8216-13.294,7.043-24.553,13.609-8.6004,5.0082-13.647,10.09-16.55,15.312-2.903,5.2226-3.6355,10.554-3.6355,15.966,0,3.4645,0.2985,6.9725,0.48838,10.546,0.407,7.1081,2.6859,10.909,5.0462,12.881,2.3875,1.9724,4.7749,2.0836,5.2904,2.0836h0.10875l-0.0538-1.248"/>
   <path id="path1026" fill="#231f20" d="m399.93,490.6s-13.24,0.52362-28.432,1.8801c-7.6236,0.67825-15.708,1.5654-22.871,2.6994-7.1896,1.1395-13.457,2.515-17.445,4.2215l0.48825,1.1503c3.7982-1.6278,10.011-3.0088,17.146-4.1374,10.716-1.6929,23.495-2.8351,33.614-3.5514,5.0462-0.36084,9.4414-0.61315,12.561-0.77593,3.12-0.16279,4.992-0.23604,4.992-0.23604l-0.0537-1.2507"/>
   <path id="path1028" fill="#231f20" d="m376.22,511.24-0.16275,0.0136,0.0538,0.62129-0.0275-0.62129c-2.0076,0.0976-13.918,0.70539-26.452,1.6848-6.2671,0.48835-12.697,1.0689-18.123,1.7309-5.426,0.66198-9.8211,1.3891-12.182,2.2166l0.43413,1.1774c2.1161-0.75694,6.5112-1.5003,11.91-2.1542,16.17-1.9696,41.455-3.261,44.466-3.4076l0.0275-0.003,0.16275-0.0136-0.10875-1.2453"/>
   <path id="path1030" fill="#231f20" d="m376.33,512.49,0.13575-0.0113-0.10875-1.2453-0.13563,0.0113"/>
   <path id="path1032" fill="#231f20" d="m378.12,537.9s-5.1819-0.29301-10.608-0.29301c-2.4146,0-4.9106,0.057-6.9996,0.2279-1.031,0.0869-1.9805,0.20076-2.7944,0.35269-0.814,0.15465-1.4922,0.33642-2.0076,0.61044l0.59675,1.1042c0.29851-0.17093,0.89538-0.34728,1.6279-0.48564,2.2518-0.42594,5.9686-0.56159,9.577-0.55888,2.6859,0,5.3175,0.0705,7.298,0.14379,1.9534,0.0733,3.2285,0.1465,3.2285,0.1465l0.0812-1.248"/>
   <path id="path1034" fill="#231f20" d="m435.01,472.69c-0.0275,0-16.332-1.2154-32.312-1.2154-5.6159,0-11.232,0.15192-16.061,0.5643-4.8291,0.4151-8.8715,1.0771-11.503,2.1623l0.48825,1.153c2.3604-0.98755,6.3756-1.6658,11.124-2.07,4.7749-0.40697,10.364-0.55889,15.952-0.55889,7.9764,0,16.007,0.30115,22.084,0.605,3.0386,0.15194,5.5618,0.30386,7.3252,0.41781,1.7906,0.11388,2.7944,0.18991,2.7944,0.18991l0.10875-1.248"/>
   <path id="path1036" fill="#231f20" d="m494.54,452.49c-1.3565,0.002-3.2828,0.26045-5.0732,0.25774-0.89538,0-1.7635-0.0651-2.4689-0.24147-0.70537-0.17635-1.1938-0.4585-1.5194-0.83561-0.434-0.53446-0.48825-0.97397-0.67825-1.6115-0.0813-0.312-0.217-0.6674-0.48825-1.0011-0.27138-0.33641-0.65113-0.62941-1.1666-0.87901-0.89537-0.42866-1.9262-0.50191-2.903-0.50734-0.624,0-1.2209,0.0325-1.7362,0.057l-0.32562,0.0162-0.16275,0.26316c-0.43413,0.65384-0.75963,1.4162-0.75963,2.2518,0,0.47748,0.10875,0.97397,0.35263,1.4488l0.13562,0.24417,0.27138,0.0679c0.78675,0.2062,1.6006,0.23875,2.089,0.40968,0.27137,0.0841,0.46125,0.18448,0.59687,0.32285,0.13563,0.13836,0.24413,0.32285,0.32563,0.67011v0.005c0.0275,0.2089,0.0538,0.38254,0.0538,0.51819,0,0.19533-0.0275,0.30657-0.0538,0.36897-0.055,0.0869-0.10875,0.13565-0.2985,0.20076-0.16275,0.0598-0.46125,0.0895-0.78675,0.0895-0.407,0-0.89538-0.0434-1.3836-0.0624l-0.0275,0.62129h0.624v-0.0299c0-1.0418-0.54262-1.8991-1.2751-2.4363-0.70538-0.54532-1.6279-0.83019-2.5231-0.83019-0.65112,0-1.3022,0.1465-1.8449,0.49378-0.56975,0.33912-1.031,0.89801-1.2209,1.617-0.13562,0.43408-0.18987,0.84375-0.18987,1.2317,0,0.78135,0.24412,1.4488,0.624,1.9886,0.51537,0.80849,1.248,1.3891,1.7905,1.9995,0.54262,0.62129,0.89537,1.1883,0.89537,2.0375,0,0.11125,0,0.2279-0.0275,0.35269l1.248,0.12751c0-0.16278,0.0275-0.32285,0.0275-0.4802,0-0.82205-0.24425-1.522-0.624-2.089-0.54262-0.84917-1.2751-1.4488-1.8178-2.0483-0.54262-0.60772-0.86812-1.1313-0.86812-1.8883,0-0.25502,0.0275-0.54532,0.13562-0.88173,0.13563-0.43138,0.35263-0.70539,0.67825-0.90615,0.3255-0.19805,0.7325-0.30658,1.1938-0.30658,0.624,0,1.3022,0.21434,1.7906,0.57788,0.48825,0.37168,0.75962,0.83561,0.75962,1.4406v0.62941l0.59688,0.0271c0.46112,0.019,0.9495,0.0651,1.4379,0.0651,0.54263-0.005,1.0852-0.0408,1.5735-0.32285,0.24425-0.14107,0.46125-0.36355,0.624-0.64298,0.13563-0.27945,0.19-0.59959,0.19-0.94414,0-0.23875-0.0275-0.49378-0.0813-0.7705v0.0353-0.0299c-0.10875-0.53718-0.3255-0.98483-0.65112-1.3104-0.48825-0.48835-1.1122-0.66197-1.6549-0.77592-0.59686-0.1085-1.1395-0.16007-1.6008-0.28487l-0.16275,0.605,0.54264-0.2903c-0.16275-0.29571-0.217-0.57786-0.217-0.86545,0-0.4992,0.18987-1.0418,0.54249-1.56l-0.51538-0.34727,0.0275,0.62399c0.54262-0.0244,1.1122-0.0542,1.682-0.0542,0.89538-0.005,1.7906,0.0976,2.3604,0.37983,0.37987,0.19262,0.59688,0.37168,0.73251,0.53718,0.18986,0.24145,0.27137,0.52633,0.40699,0.98754,0.10875,0.45036,0.29837,1.0445,0.78675,1.636,0.54262,0.6674,1.3294,1.0391,2.1704,1.2534,0.86825,0.21703,1.8178,0.28215,2.7674,0.28215,1.8991,0,3.8796-0.26045,5.0732-0.25774v-1.2507"/>
   <path id="path1038" fill="#231f20" d="m458.64,457.89c0.5155-0.11938,0.92237-0.41238,1.1938-0.79763,0.24412-0.38525,0.35262-0.83561,0.35262-1.2887,0-0.23875-0.0275-0.4775-0.0812-0.71353l-0.0813-0.40152-0.407-0.0705c-0.35262-0.0624-0.65112-0.095-0.9495-0.0976-0.37987,0.002-0.70537,0.057-1.031,0.19533-0.48825,0.20348-0.81387,0.62672-0.97662,1.0906-0.16275,0.46664-0.21713,0.98483-0.21713,1.5871v0.0895l0.0275,0.4992,0.48825,0.0895c0.21713,0.0434,0.46125,0.0489,0.65113,0.0489l0.27137-0.002v-1.248l-0.27137,0.002c-0.16275,0-0.29838-0.009-0.434-0.0299l-0.10875,0.61585,0.624-0.0271v-0.038c0-0.7081,0.10875-1.1639,0.24425-1.3456l0.217-0.19262c0.10875-0.0461,0.27137-0.0841,0.5155-0.0841,0.18987,0,0.43412,0.0244,0.7325,0.076l0.10875-0.61585-0.59688,0.14379c0.0275,0.15193,0.0275,0.29843,0.0275,0.42866,0,0.25231-0.0538,0.45036-0.13562,0.5833-0.10875,0.13565-0.217,0.2306-0.46125,0.28757l0.2985,1.2154"/>
   <path id="path1040" fill="#231f20" d="m441.12,463.41c-0.21712-0.37711-0.65112-0.95499-1.0039-1.5844-0.37975-0.61857-0.65113-1.2995-0.65113-1.6332l0.0275-0.17364,0.0275-0.0353-0.0275,0.0299c0-0.0624,0.24425-0.293,0.624-0.44222,0.37988-0.15464,0.89538-0.25503,1.3565-0.25232,0.37988-0.002,0.70538,0.0651,0.9225,0.17093,0.434,0.17906,0.841,0.6457,1.3294,1.2127,0.48837,0.55888,1.0309,1.2046,1.8178,1.617,1.0309,0.52361,2.0348,0.72166,3.0656,0.71895,0.59688,0,1.1938-0.0598,1.872-0.1465l-0.16275-1.2371c-0.65112,0.0841-1.1938,0.13294-1.7092,0.13294-0.89525-0.002-1.6278-0.14923-2.496-0.5833-0.51537-0.25232-0.9495-0.75423-1.4379-1.3185-0.48838-0.55074-0.97663-1.172-1.7362-1.5302-0.46125-0.2089-0.97675-0.28486-1.4651-0.28758-0.62401,0.002-1.2751,0.12213-1.8178,0.34455-0.5425,0.23333-1.058,0.54262-1.3022,1.1205v-0.005c-0.10875,0.22246-0.13562,0.45036-0.13562,0.66469,0,0.80847,0.407,1.56,0.78675,2.2627,0.407,0.6864,0.86825,1.3104,1.0581,1.6034l1.0581-0.64841"/>
   <path id="path1042" fill="#231f20" d="m462.25,440.19c-0.18987,0.002-0.841-0.11125-1.5735-0.2306-0.75963-0.11938-1.6006-0.24146-2.4146-0.24146-0.59687,0.002-1.1666,0.057-1.682,0.29571-0.24425,0.11937-0.48837,0.29844-0.65112,0.55346-0.19,0.25503-0.27138,0.56974-0.27138,0.89259,0,0.26045,0.0538,0.52632,0.16275,0.80576,0.13575,0.43951,0.37988,0.80306,0.73263,1.0228,0.35262,0.21433,0.70537,0.26317,1.0309,0.26317,0.48838-0.005,0.9225-0.10313,1.3022-0.10038,0.16275,0,0.32563,0.0217,0.46125,0.0651h-0.0275c0.407,0.14379,0.70537,0.42051,1.0852,0.76508,0.217,0.1682,0.40688,0.34997,0.70538,0.49647,0.27125,0.1465,0.624,0.24146,1.0038,0.23875,0.2985,0,0.59687-0.0461,0.89537-0.14107l0.37975-0.11125,0.0812-0.38525c0.0538-0.5209,0.35275-1.0526,0.35275-1.7526,0.0275-0.39881-0.13562-0.87088-0.51549-1.2073l-0.86813,0.88988c0.13562,0.13565,0.13562,0.16821,0.13562,0.31742,0.0275,0.26588-0.217,0.82748-0.35275,1.5491l0.624,0.10038-0.18987-0.59958c-0.217,0.0679-0.407,0.0922-0.54262,0.0922-0.16276,0-0.29838-0.0408-0.43401-0.10575-0.21712-0.0976-0.407-0.30115-0.7055-0.56431-0.29837-0.25774-0.67825-0.56974-1.2208-0.75965v-0.002c-0.2985-0.10313-0.59687-0.13294-0.86825-0.13294-0.54262,0.002-1.0037,0.10313-1.3022,0.0976-0.217,0-0.29837-0.0299-0.35262-0.0679-0.0538-0.038-0.13575-0.10587-0.21712-0.36897-0.0813-0.17907-0.10875-0.31472-0.10875-0.40424,0-0.114,0.0275-0.15465,0.0537-0.18991,0.0275-0.0515,0.13562-0.13565,0.37987-0.20077,0.217-0.0679,0.54262-0.10312,0.92238-0.10312,0.67825,0,1.4922,0.11125,2.2248,0.2279,0.73249,0.114,1.3294,0.23602,1.7634,0.24689v-1.2507"/>
   <path id="path1044" fill="#231f20" d="m449.34,434.36,0-0.0461c0-0.77863-0.27125-1.4759-0.7325-1.9724-0.48825-0.49649-1.1665-0.76236-1.872-0.75694-0.27125,0-0.56963,0.0352-0.86813,0.1085l-0.3255,0.0895-0.10875,0.33642c-0.0813,0.28487-0.13562,0.5616-0.13562,0.82476,0,0.58872,0.27137,1.1368,0.70537,1.4515,0.407,0.32013,0.9225,0.43679,1.4651,0.4395,0.24412,0,0.48825-0.0244,0.7325-0.0705l-0.24425-1.229c-0.16275,0.0325-0.35263,0.0489-0.48825,0.0489-0.35275,0.002-0.59688-0.0841-0.73263-0.18177-0.10875-0.10313-0.16275-0.18991-0.18987-0.4585,0-0.11938,0.0275-0.27401,0.0813-0.46393l-0.59688-0.18177,0.16288,0.605c0.18987-0.0489,0.37975-0.0705,0.5425-0.0705,0.43412,0.002,0.73262,0.1438,0.97675,0.3744,0.217,0.23332,0.37987,0.58872,0.37987,1.1069v0.0461h1.2479"/>
   <path id="path1046" fill="#231f20" d="m432.52,427.18c0.43412,0.4802,0.89537,0.99567,1.3022,1.4488,0.43412,0.45036,0.814,0.84103,1.2751,1.0825l0.56975-1.1178c-0.18987-0.0814-0.54262-0.3961-0.92237-0.81662-0.407-0.42053-0.841-0.94414-1.3022-1.4515l-0.9225,0.8546"/>
   <path id="path1048" fill="#231f20" d="m432.95,426.75-0.43412-0.42865c-0.40688,0.42322-0.70538,0.87087-0.97663,1.1693-0.32562,0.30385-0.54262,0.42594-0.81387,0.43136-0.10875,0-0.21713-0.0136-0.32563-0.0489v-0.002c-0.24412-0.057-0.5155-0.26589-0.70537-0.57788-0.217-0.30386-0.3255-0.69182-0.3255-0.99297,0-0.15735,0.0275-0.28487,0.0812-0.37983l0.18987-0.22517-0.32562-0.53447,0.32562,0.53989c0.18988-0.1085,0.3255-0.1465,0.5155-0.14921,0.27125-0.002,0.65113,0.14107,1.058,0.43679,0.43413,0.29301,0.86825,0.72167,1.3022,1.1856l0.43413-0.42324-0.43413-0.42865,0.43413,0.42865,0.48837-0.42594c-0.48837-0.49377-0.94962-0.9767-1.4921-1.3565-0.54258-0.37169-1.1123-0.66199-1.7906-0.6647-0.37987-0.002-0.78675,0.10587-1.1666,0.32014v0.005c-0.2985,0.18448-0.54263,0.45578-0.67825,0.75151-0.13563,0.29572-0.18988,0.61042-0.18988,0.91971,0,0.59686,0.18988,1.1802,0.51538,1.6821,0.32562,0.49377,0.814,0.92243,1.4109,1.0961v-0.002c0.217,0.0651,0.46113,0.095,0.67825,0.095,0.7325,0.005,1.3022-0.39883,1.682-0.80849,0.407-0.41509,0.70538-0.86545,1.031-1.1856l0.37975-0.42595-0.37975-0.42593-0.48837,0.42593"/>
   <path id="path1050" fill="#231f20" d="m432.87,425.99-0.32562,0.31471,0.86824,0.90073,0.3255-0.31471"/>
   <path id="path1052" fill="#231f20" d="m370.96,579.56c-0.24413-0.64027-0.29837-1.1015-0.29837-1.3538v-0.17635l0.0275-0.0299-0.19-0.095,0.10875,0.17092,0.0813-0.076-0.19-0.095,0.10875,0.17093-0.16287-0.24146v0.2903l0.16287-0.0489-0.16287-0.24146v0.2903-0.12213l-0.0538,0.11388,0.0538,0.009v-0.12213l-0.0538,0.11388c0.0275-0.002,0.21712,0.14651,0.35275,0.43951,0.16275,0.2903,0.29837,0.70539,0.29837,1.2182,0,0.16008-0.0275,0.32828-0.0538,0.50463l0.62401,0.0841-0.0813-0.61856-0.16275,0.0136c-0.16287-0.0112-0.16287-0.0271-0.19-0.0598-0.0538-0.0352-0.13562-0.16007-0.217-0.3744l-1.1666,0.4775c0.13575,0.26588,0.24425,0.54803,0.5155,0.80034,0.24412,0.25774,0.65112,0.41238,1.0581,0.40424l0.3255-0.0217,0.46126-0.0624,0.0812-0.47477c0.0275-0.23061,0.0538-0.4558,0.0538-0.67284,0-0.80305-0.217-1.4813-0.51551-1.9832-0.16275-0.25232-0.35262-0.46122-0.56975-0.6267-0.18987-0.16008-0.434-0.28759-0.75962-0.2903-0.3255-0.0135-0.67825,0.1872-0.81388,0.4585-0.18987,0.26858-0.217,0.55617-0.217,0.8736,0,0.4802,0.10875,1.0526,0.37975,1.7852l1.1666-0.42865"/>
   <path id="path1054" fill="#231f20" d="m376.14,596.27c-0.46125,1.3158-1.6549,2.4526-3.1742,3.2936-1.4921,0.83833-3.2828,1.3701-4.8291,1.5356h-0.0275c-0.37988,0.0489-0.7325,0.0705-1.0581,0.0705v1.2507c0.37988,0,0.78675-0.0271,1.2209-0.0814l-0.0812-0.61857,0.0812,0.62128c1.7092-0.1872,3.6355-0.75421,5.3175-1.6875,1.655-0.93328,3.0929-2.2382,3.7169-3.9583l-1.1666-0.42595"/>
  </g>
 </g>
</svg>
